<svg xmlns="http://www.w3.org/2000/svg" width="104" height="105" viewBox="0 0 104 105">
  <g id="Group_2078" data-name="Group 2078" transform="translate(-538 -4223)">
    <g id="Group_2072" data-name="Group 2072">
      <ellipse id="Ellipse_3" data-name="Ellipse 3" cx="52" cy="52.5" rx="52" ry="52.5" transform="translate(538 4223)" fill="#2061ac"/>
    </g>
    <path id="Icon_material-web" data-name="Icon material-web" d="M44.4,6H7.6a4.594,4.594,0,0,0-4.577,4.6L3,38.2a4.613,4.613,0,0,0,4.6,4.6H44.4A4.613,4.613,0,0,0,49,38.2V10.6A4.613,4.613,0,0,0,44.4,6ZM32.9,38.2H7.6V29H32.9Zm0-11.5H7.6V17.5H32.9ZM44.4,38.2H35.2V17.5h9.2Z" transform="translate(564.002 4251.102)" fill="#fff"/>
  </g>
</svg>
