<svg xmlns="http://www.w3.org/2000/svg" width="104" height="105" viewBox="0 0 104 105">
  <g id="Group_2079" data-name="Group 2079" transform="translate(-697 -1293)">
    <ellipse id="Ellipse_3" data-name="Ellipse 3" cx="52" cy="52.5" rx="52" ry="52.5" transform="translate(697 1293)" fill="#e9423c"/>
    <path id="Icon_awesome-users" data-name="Icon awesome-users" d="M7.886,18.021a5.257,5.257,0,1,0-5.257-5.257A5.262,5.262,0,0,0,7.886,18.021Zm36.8,0a5.257,5.257,0,1,0-5.257-5.257A5.262,5.262,0,0,0,44.685,18.021Zm2.629,2.629H42.056a5.242,5.242,0,0,0-3.7,1.528,12.015,12.015,0,0,1,6.169,8.986h5.421a2.626,2.626,0,0,0,2.629-2.629V25.907A5.262,5.262,0,0,0,47.313,20.65Zm-21.028,0a9.2,9.2,0,1,0-9.2-9.2A9.2,9.2,0,0,0,26.285,20.65Zm6.308,2.629h-.682a12.7,12.7,0,0,1-11.253,0h-.682a9.465,9.465,0,0,0-9.463,9.463v2.366a3.944,3.944,0,0,0,3.943,3.943H38.113a3.944,3.944,0,0,0,3.943-3.943V32.741A9.465,9.465,0,0,0,32.593,23.278Zm-18.375-1.1a5.242,5.242,0,0,0-3.7-1.528H5.257A5.262,5.262,0,0,0,0,25.907v2.629a2.626,2.626,0,0,0,2.629,2.629H8.042A12.045,12.045,0,0,1,14.219,22.177Z" transform="translate(722.715 1324.85)" fill="#fff"/>
  </g>
</svg>
