<svg xmlns="http://www.w3.org/2000/svg" width="104" height="105" viewBox="0 0 104 105">
  <g id="Group_2080" data-name="Group 2080" transform="translate(-1279 -4223)">
    <path id="Path_919" data-name="Path 919" d="M52,0c28.719,0,52,23.505,52,52.5S80.719,105,52,105,0,81.495,0,52.5,23.281,0,52,0Z" transform="translate(1279 4223)" fill="#f7be00"/>
    <path id="Icon_awesome-smile-wink" data-name="Icon awesome-smile-wink" d="M0,28.916A28.353,28.353,0,1,0,28.353.563,28.349,28.349,0,0,0,0,28.916Zm22.866-5.488a3.659,3.659,0,1,1-3.659-3.659A3.655,3.655,0,0,1,22.866,23.428Zm18.121,1.886a5.937,5.937,0,0,0-6.974,0l-1.086.972a1.37,1.37,0,0,1-2.264-1.235c.457-2.881,3.91-4.813,6.848-4.813s6.391,1.932,6.848,4.813A1.37,1.37,0,0,1,42.1,26.286ZM18.041,36.9a13.433,13.433,0,0,0,20.625,0,1.831,1.831,0,0,1,2.812,2.344,17.089,17.089,0,0,1-26.25-.011A1.827,1.827,0,0,1,18.041,36.9Z" transform="translate(1302.647 4246.584)" fill="#fff"/>
  </g>
</svg>
