<svg id="Layer_2" data-name="Layer 2" xmlns="http://www.w3.org/2000/svg" viewBox="0 0 1000 585.64"><title>Artwork landing page</title><path d="M854.8,122.07H116.3a1,1,0,0,1,0-2H854.8a1,1,0,0,1,0,2Z" fill="#e3e8f5"/><path d="M838.14,546.92H133.83a17.68,17.68,0,0,1-17.66-17.66v-434A17.68,17.68,0,0,1,133.83,77.6H838.14A17.68,17.68,0,0,1,855.8,95.26v434A17.68,17.68,0,0,1,838.14,546.92ZM133.83,79.59a15.68,15.68,0,0,0-15.66,15.67v434a15.68,15.68,0,0,0,15.66,15.67H838.14a15.68,15.68,0,0,0,15.66-15.67v-434a15.68,15.68,0,0,0-15.66-15.67Z" fill="#e3e8f5"/><path d="M148.79,524.67a1,1,0,0,1-.82-.43c-.41-.6-10.41-15.12-23.28-58S114,389.9,114,389.57a1,1,0,0,1,2,.14c0,.33-2.12,33.4,10.64,75.94s22.9,57.3,23,57.45a1,1,0,0,1-.25,1.38A.93.93,0,0,1,148.79,524.67Z" fill="#0c8a76"/><path d="M117.17,415.16s6.27-5.09,5.59-13.14,2-16.7,8.4-12.38,6.19,13.22-1.36,19.5S117.17,415.16,117.17,415.16Z" fill="#0c8a76"/><path d="M116.3,411.93s-8.45-1.23-12.37-9-11.19-14.19-14.42-6.76,1.91,15.5,12.15,17.13S116.3,411.93,116.3,411.93Z" fill="#0c8a76"/><path d="M131.05,474.16s-9.93-1.45-14.53-10.56-13.15-16.67-17-7.93,2.25,18.2,14.28,20.11S131.05,474.16,131.05,474.16Z" fill="#0c8a76"/><path d="M136,494.92s-7.39.61-12.21-5.18-12.23-9.82-13.52-2.9,4.64,12.73,13.62,12.11S136,494.92,136,494.92Z" fill="#0c8a76"/><path d="M119,442.68s-9.76-1.43-14.29-10.38S91.76,415.91,88,424.49s2.21,17.91,14,19.79S119,442.68,119,442.68Z" fill="#0c8a76"/><path d="M122.53,451.14s8.89-7.56,7.93-19.52,2.88-24.82,11.88-18.39,8.77,19.65-1.92,29S122.53,451.14,122.53,451.14Z" fill="#0c8a76"/><path d="M131.8,483.19s8.89-7.56,7.93-19.53,2.88-24.81,11.88-18.39,8.77,19.65-1.92,29S131.8,483.19,131.8,483.19Z" fill="#0c8a76"/><path d="M114.71,395.74s-14-13.65-8.82-26.62,13.14-5.93,14,2.8S114.71,395.74,114.71,395.74Z" fill="#0c8a76"/><path d="M918.89,567.41H546.56s2.32-69.44,61.18-80.88,70.56,13.25,70.56,13.25,7.12-45,61.54-63.85,99.7,74.26,99.7,74.26,23.4-10.47,43.74,2.14S918.89,567.41,918.89,567.41Z" fill="#0c8a76"/><path d="M1.08,568.18H333.31S307.56,488,268,453.56C217.6,409.73,145.2,420,140.11,459.32s6.78,66.47,6.78,66.47-36.83-47.14-68.49-28.15c-25.48,15.28-19.33,37.23-19.33,37.23s-32.9-2-45.1,7.2S1.08,568.18,1.08,568.18Z" fill="#f0b91c"/><path d="M427.53,566.12a1,1,0,0,1-1-.78c-.08-.36-7.9-35.49-26.15-42-17.89-6.38-24,4.81-24.22,5.29l-.8,1.54-.92-1.47c-.37-.59-37.7-58.83-95.89-53.91a22.14,22.14,0,0,0-16.39,8.74c-12.56,16.38-6.68,50.06-6.62,50.39a1,1,0,1,1-2,.36c-.26-1.42-6.09-34.88,7-52a24.05,24.05,0,0,1,17.8-9.52c54.55-4.64,91,45,96.9,53.58,2.43-3.18,10.05-10.53,25.77-4.91,19.29,6.89,27.1,42,27.43,43.45a1,1,0,0,1-.77,1.19Z" fill="#231f20"/><rect x="292.99" y="121.07" width="148.44" height="202.08" rx="11.95" fill="#4950a2"/><rect x="306.47" y="121.07" width="148.44" height="202.08" rx="11.95" fill="#2d2c71"/><path d="M330.51,187.7s-2.55,49.47,2,57.23,8.65,8.39,8.65,8.39h181l7.8-23.81S473.23,204.66,456,205.06s-51.34,1.64-51.34,1.64l1.87-29.17Z" fill="#f9b09a"/><rect x="395.41" y="392.01" width="46.8" height="24.92" rx="9.36" fill="#2d2c71"/><rect x="304.79" y="368.93" width="228.03" height="35.18" rx="6.18" fill="#4950a2"/><rect x="304.79" y="359.97" width="228.03" height="32.05" rx="5.9" fill="#2d2c71"/><rect x="507.22" y="187.2" width="39.17" height="46.8" fill="#f9b09a"/><path d="M680.54,566.06a25.93,25.93,0,0,1,11.11,3c5.85,3,8.77,13.86,8.77,13.86H595.73s-4-6.87-.85-11.26,3.3-14.62,3.3-14.62l-.42-30.16,58.75,3.31-1,35.52Z" fill="#f9b19c"/><rect x="593.69" y="582.42" width="109.53" height="6.1" rx="3.05" fill="#2d3487"/><path d="M667.49,563.41a22.38,22.38,0,0,0-5.72,10.87c-1.47,6.87-1.21,9.28-1.21,9.28h17.8s-.06-8.9,2.54-14l2.61-5.08Z" fill="#2d3487"/><path d="M750.26,475.88a26.09,26.09,0,0,1,11.41-1.54c6.57.54,13.47,9.36,13.47,9.36l-96.47,40.69s-6.32-4.78-5.15-10-2.64-14.76-2.64-14.76L658.77,472l55.41-19.79,12.87,33.13Z" fill="#f9b19c"/><rect x="673.48" y="503.19" width="109.53" height="6.1" rx="3.05" transform="translate(-139.51 322.88) rotate(-22.87)" fill="#2d3487"/><path d="M737.2,478.52a22.47,22.47,0,0,0-1,12.24c1.32,6.89,2.49,9,2.49,9l16.41-6.92s-3.52-8.18-3.1-13.88l.43-5.7Z" fill="#2d3487"/><path d="M349.2,279.52s0,83.41,64.6,104c58,18.49,181.93,10,181.93,10s-10.18,60.36-10.86,92.57-1.35,41.71-1.35,41.71,24.07,5.09,44.42,6.45a299,299,0,0,0,38,0l6.78-62.06a144.91,144.91,0,0,0,28.74-7.54c14.5-5.6,17.3-10.69,17.3-10.69s1.78-63.83-8.4-103.85-43.74-71.72-67.65-80.7-207.53-2.12-207.53-2.12Z" fill="#4273b9"/><path d="M646.77,535.86c-5.65,0-12.14-.15-18.9-.6-20.18-1.35-44.32-6.41-44.56-6.46l-.85-.18.06-.87c0-.09.69-9.86,1.36-41.66.62-29.37,9.21-82.68,10.66-91.48-13.22.82-126.66,7.22-181-10.13-64.55-20.58-65.3-104.12-65.3-105v-.87l.86-.12,86-12.21c7.61-.29,184.2-6.78,208,2.18,25.86,9.71,58.46,42.82,68.27,81.39,10.09,39.69,8.44,103.48,8.42,104.12v.24l-.11.21c-.12.22-3.14,5.47-17.81,11.14a148.23,148.23,0,0,1-28.19,7.48l-6.79,62.12-.82.06C665.88,535.27,658,535.86,646.77,535.86ZM584.57,527c4.43.9,25.52,5.06,43.44,6.25a303.36,303.36,0,0,0,37,.06l6.77-62,.78-.11a145.07,145.07,0,0,0,28.51-7.48c12.33-4.76,16-9.14,16.67-10.06.11-4.67,1.31-65.23-8.37-103.3s-41.66-70.48-67-80c-23.44-8.81-205.31-2.12-207.14-2.05l-85,12.07c.26,8.87,4.24,83.18,63.89,102.21,57.15,18.22,180.32,10,181.56,10l1.26-.08-.21,1.24c-.1.61-10.17,60.66-10.84,92.43C585.31,512.81,584.74,524,584.57,527Z" fill="#231f20"/><path d="M344.28,269.43V283s98.85-.34,135.81-2.37S536.38,272,536.38,272Z" fill="#f05b4f"/><path d="M413.29,88.13S388.37,83.6,367,96.49s-39.93,41.37-42.47,63.24-2.29,31-2.29,31,39.42-2,57.22-3.06,25.18-3.3,25.18-3.3l-1.27,22.38s56.48-2.61,80.5,6.8S511.21,222,511.21,222V193l30.32,1.09,10.88-34.4s-14.88-26-35.36-45.53C483.89,82.58,413.29,88.13,413.29,88.13Z" fill="#f05b4f"/><path d="M432.85,35.81a14.46,14.46,0,0,0-11.06,8c-3.69,7.44-1.08,15,2.22,16.55a12.05,12.05,0,0,0,6.17,1.19L405.83,93.35s5.81,11.19,23.5,13.86,27.49-4.45,27.49-4.45V92.2s6.49.77,17.42-1.65,15.64-13,16.28-21.62S492,51.22,492,51.22s4.92-7.72,3.14-13.82S472,22,461.53,23.79,432.85,35.81,432.85,35.81Z" fill="#f8ada0"/><path d="M460.51,82c6.38,2.74,14.67-5.56,14.67-5.56s-11.22-.92-15-3.69a21.11,21.11,0,0,1-5-4.73S454.13,79.3,460.51,82Z" fill="#fff"/><path d="M430.41,37.23a12.33,12.33,0,0,1,9.84,1.18c4.92,3,5.17,11.19,5.17,11.19s4.49-1.27,7.37-7.79,2.89-9.58,2.89-9.58,8.31,16.27,21,13.14,15.94-10.94,15.94-10.94a31,31,0,0,1,.42,10.94c-.93,5.17-1.27,5.85-1.27,5.85s4.83-4.24,5.94-14.59S483,9.51,471.78,6.37s-20.51,7.88-27.8,9.07-9-.42-12.89,4.66S430.41,37.23,430.41,37.23Z" fill="#231f20"/><circle cx="463.56" cy="57.32" r="3.05" fill="#231f20"/><circle cx="482.25" cy="62.02" r="3.01" fill="#231f20"/><path d="M435.16,78.6s5.85,8,13.82,10.76l8,2.8-.13,5.32S447,98.77,440.93,91.4,435.16,78.6,435.16,78.6Z" fill="#231f20"/><path d="M454.91,67.75s2.95,5,12.26,6.84c10,2,13.35.53,13.35.53s-4.64,2.66-12,1.61a34.89,34.89,0,0,1-13.28-4.46Z" fill="#231f20"/><path d="M433.25,39.3s5.18.43,5.51,7.08-4.49,9.24-8.64,9.24-4.95-.93-1.22-1.35,7.61-3.29,6.67-4.22-4.07-.34-2.76-1.91,3.75,1.4,4.35-1.56A6.29,6.29,0,0,0,433.25,39.3Z" fill="#231f20"/><path d="M357.26,212.55l.08,2.37a15.51,15.51,0,0,0-15.52,15.5V232a15.53,15.53,0,0,0,15.52,15.52h.5a5.85,5.85,0,0,0,5.85,5.83H391a5.85,5.85,0,0,0,5.85-5.83V212.55Zm.34,31.3s-10.86-2.87-11.2-10.92c-.56-12.93,11.2-13.62,11.2-13.62Z" fill="#2d2c71"/><path d="M490.3,348.22a138.27,138.27,0,0,1-62.64-15.94c-33.12-17.75-49.44-50.22-49.6-50.54a1,1,0,1,1,1.79-.89c.16.32,16.21,32.23,48.75,49.67s64.18,15.68,64.48,15.65a1,1,0,0,1,1.06.93,1,1,0,0,1-.93,1.06S492.13,348.22,490.3,348.22Z" fill="#231f20"/><path d="M519.09,348.23H504.85a1,1,0,1,1,0-2h14.24a1,1,0,0,1,0,2Z" fill="#231f20"/><path d="M625.58,535.09h-.11a1,1,0,0,1-.88-1.1c.07-.62,6.81-62.73,10.16-108.3,3.5-47.7-10.26-70.56-23.11-75.64-14.22-5.61-75.85-1.85-76.47-1.81a.94.94,0,0,1-1-.93,1,1,0,0,1,.93-1.06c2.55-.16,62.7-3.83,77.32,1.95,14.13,5.59,28,28.91,24.36,77.64-3.35,45.6-10.09,107.74-10.16,108.37A1,1,0,0,1,625.58,535.09Z" fill="#231f20"/><path d="M415.77,323.91l-1.29-1.52s4.38-3.92,8.28-17.09a48.42,48.42,0,0,0,.76-24.62l1.92-.55a49.54,49.54,0,0,1-.77,25.74C420.57,319.73,416,323.74,415.77,323.91Z" fill="#231f20"/><path d="M408.12,317.36l-1.67-1.08c0-.07,4.07-6.34,7.72-18.74,3.54-12,1.43-16.65,1.41-16.69l1.78-.9c.1.21,2.53,5.21-1.28,18.16C412.34,310.82,408.29,317.1,408.12,317.36Z" fill="#231f20"/><path d="M658.82,475.38c-3.51,0-6.65-.44-8.88-1.61-7.29-3.81-9.28-22.47-11.81-46.09-.83-7.79-1.7-15.85-2.82-24.17-4.59-34-15-57.95-23.35-66.59C603.4,328,530.31,299.3,529.58,299a1,1,0,0,1,.72-1.86c3,1.19,74.23,29.18,83.1,38.39,7.92,8.22,18.92,30.89,23.88,67.7,1.13,8.35,2,16.42,2.83,24.23,2.37,22.12,4.41,41.21,10.76,44.54,8.61,4.51,34.11-3.26,34.37-3.34a1,1,0,0,1,1.25.66,1,1,0,0,1-.66,1.24C685,470.82,670,475.38,658.82,475.38Z" fill="#231f20"/><path d="M552.25,308.1a1,1,0,0,1-.76-.36l-19.43-23.26a1,1,0,0,1,1.53-1.28L553,306.46a1,1,0,0,1-.13,1.4A1,1,0,0,1,552.25,308.1Z" fill="#231f20"/><path d="M595.73,394.53a1.33,1.33,0,0,1-.28,0,1,1,0,0,1-.68-1.24l7.12-24.92a1,1,0,0,1,1.91.55l-7.12,24.92A1,1,0,0,1,595.73,394.53Z" fill="#231f20"/><rect x="459.07" y="239.25" width="102.75" height="14.07" rx="7.03" fill="#c9cdda"/><polygon points="372.26 267.31 239.33 588.52 256.12 588.52 389.38 267.31 372.26 267.31" fill="#facd40"/><rect x="156.93" y="253.32" width="637.51" height="9.33" rx="4.66" fill="#f2cb18"/><path d="M767.65,272H183.72a9.33,9.33,0,0,1-9.33-9.32H777A9.33,9.33,0,0,1,767.65,272Z" fill="#f0b91c"/><polygon points="592.5 267.31 725.43 588.52 708.65 588.52 575.38 267.31 592.5 267.31" fill="#facd40"/><rect x="407.62" y="413.29" width="22.38" height="118.01" fill="#2d2c71"/><circle cx="341.91" cy="569.36" r="21.19" fill="#484fa1"/><path d="M363,568.18a21.17,21.17,0,0,0-42.27,0Z" fill="#2d2c71"/><circle cx="498.4" cy="569.36" r="21.19" fill="#484fa1"/><path d="M519.54,568.18a21.17,21.17,0,0,0-42.27,0Z" fill="#2d2c71"/><polygon points="347.84 551.73 407.62 531.3 430 531.3 490.94 551.73 482.81 560.55 420.92 542.07 354.63 560.55 347.84 551.73" fill="#2d2c71"/><circle cx="341.91" cy="569.36" r="8.6" fill="#2d2c71"/><circle cx="498.4" cy="569.36" r="8.6" fill="#2d2c71"/><path d="M403.2,210.76l.33-5.26s35.19-3.21,64.52,3.14,61.89,20.86,61.89,20.86-55.78-19.42-81-20.09A405.28,405.28,0,0,0,403.2,210.76Z" fill="#231f20"/><path d="M999,567.41a1,1,0,0,1-.91-.6c-.12-.28-11.9-27.43-26.62-28.39s-22.8,7-22.87,7.07l-1,1-.64-1.2c-.2-.4-21.12-39.18-52.82-32S862.4,540.13,862.41,541v1.08l-1.09-.08c-.18,0-18.37-1.41-29.39,5.69a22.14,22.14,0,0,0-10.23,18.68,1,1,0,0,1-2,.13A23.81,23.81,0,0,1,830.86,546c10.19-6.57,25.55-6.28,29.63-6.07.49-4.52,4.27-22.14,33.26-28.66,30-6.74,50.6,25.5,54.39,32,2.63-2.2,10.55-7.64,23.46-6.8,15.94,1.05,27.82,28.43,28.32,29.6a1,1,0,0,1-.53,1.3A.88.88,0,0,1,999,567.41Z" fill="#231f20"/><path d="M403.27,210.88h-.08a1,1,0,0,1-.91-1.08l6.29-76.26a1,1,0,1,1,2,.16L404.27,210A1,1,0,0,1,403.27,210.88Z" fill="#231f20"/><path d="M547.19,195.31h0L510.25,194l-2.08-50a1,1,0,0,1,2-.08l2,48.16,35.07,1.24a1,1,0,0,1,0,2Z" fill="#231f20"/><path d="M554.86,153.43l-27.92,85.24a11.16,11.16,0,0,0,10.61,14.64h137.8A11.16,11.16,0,0,0,686,245.49l26.28-83.79a11.17,11.17,0,0,0-10.54-14.51l-136.16-1.45A11.17,11.17,0,0,0,554.86,153.43Z" fill="#e3e8f5"/><path d="M322.24,191.75a1,1,0,0,1,0-2c.2,0,20.76-.52,37.33-2s44.71-4.36,45-4.39a1,1,0,0,1,1.09.88,1,1,0,0,1-.88,1.1c-.29,0-28.41,3-45,4.39s-37.25,2-37.46,2Z" fill="#231f20"/><path d="M456.44,51a1,1,0,0,1-.78-.37,1,1,0,0,1,.13-1.37c.17-.15,1.2-.93,4.46-1.82,4.48-1.22,7.21-.07,7.32,0a1,1,0,0,1,.52,1.31,1,1,0,0,1-1.31.52,10.07,10.07,0,0,0-6,.12,12.82,12.82,0,0,0-3.72,1.42A1,1,0,0,1,456.44,51Z" fill="#231f20"/><path d="M488.74,59.29a1,1,0,0,1-1-.92,7.35,7.35,0,0,0-1.81-3.46,9.73,9.73,0,0,0-4.48-2.73,1,1,0,0,1,.48-1.93,11.51,11.51,0,0,1,5.53,3.38,8.75,8.75,0,0,1,2.26,4.59,1,1,0,0,1-.92,1.07Z" fill="#231f20"/><circle cx="826.99" cy="101.23" r="7.12" fill="#e3e8f5"/><circle cx="798.85" cy="101.23" r="7.12" fill="#e3e8f5"/><circle cx="770.7" cy="101.23" r="7.12" fill="#e3e8f5"/></svg>