<svg xmlns="http://www.w3.org/2000/svg" width="197.511" height="55.124" viewBox="0 0 197.511 55.124"><g id="Group_4" data-name="Group 4" transform="translate(-676 -461)"><g id="Group_2" data-name="Group 2" transform="translate(676 461)"><path id="Path_1" data-name="Path 1" d="M258.9,464.53a3.67,3.67,0,0,0-3.651,3.3,23.011,23.011,0,0,1-12.2,3.471l-.3,0A23.148,23.148,0,1,1,258.132,430.6a1.968,1.968,0,0,1,.685,1.508,2.066,2.066,0,0,1-3.424,1.569,19.031,19.031,0,1,0-12.343,33.515,18.165,18.165,0,0,0,15.212-7.6l.065-.092a6.523,6.523,0,0,0-10.455-7.795l-.632.8a5.923,5.923,0,0,1-4.189,1.689,6.036,6.036,0,1,1,1.774-11.8,3.67,3.67,0,1,0,1.756-4.066l-.046-.019a10.45,10.45,0,1,0-3.484,20.3,10.264,10.264,0,0,0,7.454-3.131l.827-1.03a2.11,2.11,0,0,1,3.72.884,2.088,2.088,0,0,1-.339,1.636l-.068.1a13.817,13.817,0,0,1-11.6,5.712,14.618,14.618,0,0,1-14.606-15.2A14.618,14.618,0,0,1,252.53,437.03a6.473,6.473,0,0,0,8.48-9.781,27.562,27.562,0,1,0-18.315,48.468l.357,0a27.4,27.4,0,0,0,14.489-4.113,3.669,3.669,0,1,0,1.36-7.076Z" transform="translate(-215.488 -420.595)" fill="#f7be00"/><g id="Group_1" data-name="Group 1" transform="translate(59.785 14.657)"><path id="Path_2" data-name="Path 2" d="M406.452,489.186a15.839,15.839,0,0,1-6.867,1.273q-5.527,0-8.693-3.249a11.877,11.877,0,0,1-3.166-8.659,12.69,12.69,0,0,1,3.559-9.346,12.451,12.451,0,0,1,9.237-3.584,17.282,17.282,0,0,1,5.929.888v5.209a10.507,10.507,0,0,0-5.494-1.44,7.289,7.289,0,0,0-5.46,2.127,7.894,7.894,0,0,0-2.077,5.762,7.741,7.741,0,0,0,1.96,5.552,6.923,6.923,0,0,0,5.276,2.069,11.252,11.252,0,0,0,5.795-1.541Z" transform="translate(-387.727 -464.648)" fill="#313133"/><path id="Path_3" data-name="Path 3" d="M463.429,490.768a4.6,4.6,0,0,0-2.227-.519,3.21,3.21,0,0,0-2.7,1.265,5.519,5.519,0,0,0-.971,3.442v8.19h-5.293V485.995h5.293v3.182h.067q1.256-3.483,4.522-3.484a3.407,3.407,0,0,1,1.307.2Z" transform="translate(-429.848 -477.754)" fill="#313133"/><path id="Path_4" data-name="Path 4" d="M504.67,495.857H493.481q.268,3.735,4.707,3.735a9.188,9.188,0,0,0,4.974-1.34v3.819a13.07,13.07,0,0,1-6.181,1.273,7.982,7.982,0,0,1-8.743-8.726,9.178,9.178,0,0,1,2.478-6.766,8.259,8.259,0,0,1,6.1-2.5,7.5,7.5,0,0,1,5.8,2.227,8.579,8.579,0,0,1,2.052,6.047Zm-4.908-3.249q0-3.685-2.981-3.685a2.846,2.846,0,0,0-2.2,1.055,4.791,4.791,0,0,0-1.131,2.63Z" transform="translate(-453.351 -477.533)" fill="#313133"/><path id="Path_5" data-name="Path 5" d="M558.134,495.857H546.945q.268,3.735,4.707,3.735a9.19,9.19,0,0,0,4.974-1.34v3.819a13.07,13.07,0,0,1-6.181,1.273,7.983,7.983,0,0,1-8.743-8.726,9.179,9.179,0,0,1,2.479-6.766,8.259,8.259,0,0,1,6.1-2.5,7.5,7.5,0,0,1,5.8,2.227,8.579,8.579,0,0,1,2.052,6.047Zm-4.907-3.249q0-3.685-2.981-3.685a2.846,2.846,0,0,0-2.2,1.055,4.791,4.791,0,0,0-1.131,2.63Z" transform="translate(-488.257 -477.533)" fill="#313133"/><path id="Path_6" data-name="Path 6" d="M605.579,493.714a7.83,7.83,0,0,1-3.534.62q-5.594,0-5.594-5.812v-7.855h-2.78v-3.9h2.78v-3.7l5.276-1.507v5.209h3.852v3.9h-3.852V487.6q0,2.68,2.127,2.68a3.586,3.586,0,0,0,1.725-.486Z" transform="translate(-522.187 -468.523)" fill="#313133"/><path id="Path_7" data-name="Path 7" d="M649.67,495.857H638.482q.268,3.735,4.707,3.735a9.188,9.188,0,0,0,4.974-1.34v3.819a13.07,13.07,0,0,1-6.181,1.273,7.982,7.982,0,0,1-8.743-8.726,9.178,9.178,0,0,1,2.478-6.766,8.259,8.259,0,0,1,6.1-2.5,7.5,7.5,0,0,1,5.8,2.227,8.579,8.579,0,0,1,2.052,6.047Zm-4.907-3.249q0-3.685-2.981-3.685a2.846,2.846,0,0,0-2.2,1.055,4.79,4.79,0,0,0-1.131,2.63Z" transform="translate(-548.021 -477.533)" fill="#313133"/><path id="Path_8" data-name="Path 8" d="M700.722,502.305a10.467,10.467,0,0,1-5.175,1.038,8.75,8.75,0,0,1-6.4-2.4,8.27,8.27,0,0,1-2.445-6.18,9.114,9.114,0,0,1,2.621-6.892,9.688,9.688,0,0,1,7.01-2.521,9,9,0,0,1,4.388.8v4.489a6.033,6.033,0,0,0-3.7-1.24,4.878,4.878,0,0,0-3.609,1.332,4.969,4.969,0,0,0-1.331,3.677,4.885,4.885,0,0,0,1.273,3.576,4.676,4.676,0,0,0,3.5,1.3,6.985,6.985,0,0,0,3.869-1.24Z" transform="translate(-582.927 -477.533)" fill="#313133"/><path id="Path_9" data-name="Path 9" d="M753.543,488.212h-5.276v-9.748q0-3.769-2.747-3.769a2.813,2.813,0,0,0-2.278,1.055,4.07,4.07,0,0,0-.871,2.68v9.781h-5.293V462.821h5.293v10.786h.067a6.014,6.014,0,0,1,5.276-2.965q5.828,0,5.829,7.034Z" transform="translate(-615.817 -462.821)" fill="#313133"/></g></g></g></svg>