<svg xmlns="http://www.w3.org/2000/svg" width="403.027" height="112.482" viewBox="0 0 403.027 112.482"><g id="Group_2086" data-name="Group 2086" transform="translate(-676 -461)"><g id="Group_2" data-name="Group 2" transform="translate(676 461)"><path id="Path_1" data-name="Path 1" d="M304.072,510.245a7.489,7.489,0,0,0-7.45,6.743,46.955,46.955,0,0,1-24.892,7.083c-.2,0-.408,0-.612,0A47.235,47.235,0,1,1,302.5,441a4.015,4.015,0,0,1,1.4,3.077,4.217,4.217,0,0,1-6.986,3.2,38.833,38.833,0,1,0-25.187,68.389c12.86,0,24.176-5.653,31.04-15.5l.132-.188a13.311,13.311,0,0,0-21.333-15.905l-1.29,1.629a12.087,12.087,0,0,1-8.547,3.446,12.317,12.317,0,1,1,3.619-24.086,7.489,7.489,0,1,0,3.584-8.3c-.032-.012-.062-.028-.094-.039a21.324,21.324,0,1,0-7.109,41.428,20.944,20.944,0,0,0,15.211-6.388l1.687-2.1a4.3,4.3,0,0,1,7.591,1.8,4.26,4.26,0,0,1-.691,3.337l-.138.2c-5.163,7.406-13.787,11.655-23.66,11.655a29.828,29.828,0,0,1-29.8-31.02,29.828,29.828,0,0,1,49.147-21.512,13.207,13.207,0,0,0,17.3-19.959A56.241,56.241,0,1,0,271,533.072c.244,0,.484,0,.728,0a55.921,55.921,0,0,0,29.566-8.393,7.486,7.486,0,1,0,2.775-14.439Z" transform="translate(-215.488 -420.595)" fill="#fff"/><g id="Group_1" data-name="Group 1" transform="translate(121.993 29.908)"><path id="Path_2" data-name="Path 2" d="M425.936,513.706q-5.366,2.6-14.013,2.6-11.278,0-17.737-6.63T387.727,492q0-11.756,7.263-19.07t18.849-7.314a35.263,35.263,0,0,1,12.1,1.811V478.06a21.441,21.441,0,0,0-11.21-2.939,14.873,14.873,0,0,0-11.142,4.34q-4.238,4.341-4.238,11.757,0,7.108,4,11.329t10.766,4.221a22.96,22.96,0,0,0,11.825-3.145Z" transform="translate(-387.727 -463.638)" fill="#fff"/><path id="Path_3" data-name="Path 3" d="M475.071,496.048a9.376,9.376,0,0,0-4.545-1.06,6.549,6.549,0,0,0-5.5,2.581,11.262,11.262,0,0,0-1.981,7.023v16.713h-10.8v-35h10.8V492.8h.136q2.564-7.108,9.227-7.108a6.953,6.953,0,0,1,2.666.41Z" transform="translate(-406.547 -469.493)" fill="#fff"/><path id="Path_4" data-name="Path 4" d="M521.766,506.784H498.935q.547,7.622,9.6,7.621a18.75,18.75,0,0,0,10.15-2.734v7.792q-4.854,2.6-12.612,2.6-8.476,0-13.158-4.7t-4.682-13.107q0-8.715,5.057-13.807a16.852,16.852,0,0,1,12.441-5.093q7.656,0,11.842,4.545t4.187,12.338Zm-10.014-6.63q0-7.519-6.083-7.519a5.808,5.808,0,0,0-4.494,2.153,9.776,9.776,0,0,0-2.308,5.366Z" transform="translate(-417.048 -469.395)" fill="#fff"/><path id="Path_5" data-name="Path 5" d="M575.23,506.784H552.4q.547,7.622,9.6,7.621a18.752,18.752,0,0,0,10.15-2.734v7.792q-4.854,2.6-12.612,2.6-8.477,0-13.158-4.7T541.7,504.255q0-8.715,5.058-13.807a16.852,16.852,0,0,1,12.44-5.093q7.657,0,11.842,4.545t4.187,12.338Zm-10.014-6.63q0-7.519-6.083-7.519a5.806,5.806,0,0,0-4.494,2.153,9.777,9.777,0,0,0-2.308,5.366Z" transform="translate(-432.645 -469.395)" fill="#fff"/><path id="Path_6" data-name="Path 6" d="M617.971,516.771q-2.392,1.263-7.212,1.264-11.415,0-11.415-11.859V490.147h-5.673v-7.963h5.673V474.63l10.766-3.075v10.629h7.86v7.963h-7.86V504.3q0,5.469,4.34,5.469a7.317,7.317,0,0,0,3.52-.991Z" transform="translate(-447.805 -465.369)" fill="#fff"/><path id="Path_7" data-name="Path 7" d="M666.766,506.784h-22.83q.547,7.622,9.6,7.621a18.749,18.749,0,0,0,10.15-2.734v7.792q-4.854,2.6-12.612,2.6-8.476,0-13.158-4.7t-4.682-13.107q0-8.715,5.057-13.807a16.853,16.853,0,0,1,12.441-5.093q7.656,0,11.842,4.545t4.187,12.338Zm-10.014-6.63q0-7.519-6.083-7.519a5.807,5.807,0,0,0-4.494,2.153,9.774,9.774,0,0,0-2.308,5.366Z" transform="translate(-459.348 -469.395)" fill="#fff"/><path id="Path_8" data-name="Path 8" d="M715.309,519.942q-3.657,2.119-10.56,2.119-8.067,0-13.056-4.888a16.876,16.876,0,0,1-4.99-12.61q0-8.921,5.348-14.064t14.3-5.143q6.185,0,8.954,1.64v9.16a12.31,12.31,0,0,0-7.553-2.53,9.955,9.955,0,0,0-7.365,2.717,10.139,10.139,0,0,0-2.717,7.5,9.968,9.968,0,0,0,2.6,7.3,9.542,9.542,0,0,0,7.143,2.649,14.253,14.253,0,0,0,7.895-2.529Z" transform="translate(-474.945 -469.395)" fill="#fff"/><path id="Path_9" data-name="Path 9" d="M770.675,514.633H759.909V494.742q0-7.691-5.6-7.69a5.739,5.739,0,0,0-4.648,2.153,8.306,8.306,0,0,0-1.777,5.469v19.959h-10.8V462.821h10.8v22.01h.137a12.271,12.271,0,0,1,10.766-6.049q11.893,0,11.893,14.354Z" transform="translate(-489.64 -462.821)" fill="#fff"/></g></g></g></svg>