<svg xmlns="http://www.w3.org/2000/svg" width="104" height="105" viewBox="0 0 104 105"><g id="Group_2074" data-name="Group 2074" transform="translate(-538 -4223)"><g id="Group_2072" data-name="Group 2072"><ellipse id="Ellipse_3" data-name="Ellipse 3" cx="52" cy="52.5" rx="52" ry="52.5" transform="translate(538 4223)" fill="#2061ac"/><path id="Icon_map-art-gallery" data-name="Icon map-art-gallery" d="M21.629,4.32C8.561,4.32.72,14.8.72,20.045s2.613,9.173,7.841,9.173,7.842,1.31,7.842,5.241a8.944,8.944,0,0,0,9.147,9.172c16.989,0,24.828-9.172,24.828-18.344C50.377,9.562,37.307,4.32,21.629,4.32ZM18.362,9.562a3.276,3.276,0,1,1-3.267,3.275,3.271,3.271,0,0,1,3.267-3.275Zm10.453,0a3.276,3.276,0,1,1-3.266,3.275,3.271,3.271,0,0,1,3.266-3.275ZM39.269,14.8A3.276,3.276,0,1,1,36,18.079,3.271,3.271,0,0,1,39.269,14.8ZM9.214,17.424A3.275,3.275,0,1,1,5.947,20.7,3.269,3.269,0,0,1,9.214,17.424Zm16.334,13.1a3.931,3.931,0,1,1-3.92,3.932,3.925,3.925,0,0,1,3.92-3.932Z" transform="translate(564.451 4251.525)" fill="#fff"/></g></g></svg>