<svg id="Layer_2" data-name="Layer 2" xmlns="http://www.w3.org/2000/svg" viewBox="0 0 200 200"><title>Artwork landing page</title><path d="M200,100a99.8,99.8,0,0,1-41.44,81.05c-.4.3-.8.59-1.21.87l-.64.45a99.83,99.83,0,0,1-113.41,0l-.64-.45c-.41-.28-.82-.57-1.22-.87A100,100,0,1,1,200,100Z" fill="#f0b91c" fill-rule="evenodd"/><path d="M149.75,114.93a40.29,40.29,0,0,1,2.07-9.89h0c.87-2.94,1.91-6.33,2.9-10.75l-3.44-1.4-1.68-.68-6.24-2.54-.53-.21-.09,0-5.84.78h0l-.87.12h0l-13.88,1.87-8,1.06-7.28,1,2.2,18.76.79,6.68,1.64,14,.8,6.79.9,7.7,1,8.43a40.31,40.31,0,0,0,5.61-.11c14-1.29,11.75-10.53,18.63-11.2,7.68-.74,19.45,1.12,25-15.66C158.9,127.61,149.43,121.31,149.75,114.93ZM84.32,88.35h0l-4.9.54L64.7,90.49h0l-.49.06-6.77.74-1,.1-4.09.45L51.06,92h0l-6,.66a125.36,125.36,0,0,0,3.14,12.47h0a42.14,42.14,0,0,1,2.1,9.81c.31,6.38-9.16,12.68-13.74,14.7,5.59,16.78,17.36,14.92,25,15.66,6.88.67,4.59,9.9,18.62,11.2a40.5,40.5,0,0,0,5.62.11l1.09-7.82L88,140.63l1-6.95,2-14.47.86-6.23L95.5,87.13Z" fill="#2f1f12" fill-rule="evenodd"/><path d="M60.93,101.2c-.18-1.89-7.94-4.14-10.53,2.07s2.07,15,10.87,15.7,6.21-.86,6.21-.86Z" fill="#ecbf97" fill-rule="evenodd"/><path d="M139.26,101.2c.17-1.89,7.94-4.14,10.52,2.07s-2.07,15-10.86,15.7-6.21-.86-6.21-.86Z" fill="#ecbf97" fill-rule="evenodd"/><path d="M157.35,181.92l-.64.45a99.83,99.83,0,0,1-113.41,0l-.64-.45a70.4,70.4,0,0,1,9.9-9.93A85.66,85.66,0,0,1,78.8,157.38l1.31-.44c0-.15.06-.3.08-.45a102.75,102.75,0,0,0,1.39-15.68h0c0-1.47,0-2.78,0-3.87,0-.91,0-1.66,0-2.22,0-.13,0-.25,0-.36,0-.43,0-.67,0-.67h36.89s0,1.24-.06,3.24h0c0,.91,0,2,0,3.16a106.47,106.47,0,0,0,1.41,16.4c0,.15.05.3.08.45l1.51.51a85.56,85.56,0,0,1,26,14.54A70.4,70.4,0,0,1,157.35,181.92Z" fill="#ecbf97" fill-rule="evenodd"/><path d="M118.45,133.68s-.1,2.6,0,6.38c-7,17.61-28.76,19.59-36.84.73.09-4.17,0-7.11,0-7.11Z" fill="#d67f54" fill-rule="evenodd"/><path d="M158.56,181.05c-.4.3-.8.59-1.21.87l-.64.45a99.83,99.83,0,0,1-113.41,0l-.64-.45c-.41-.28-.82-.57-1.22-.87A72.09,72.09,0,0,1,51,172h0c1.07-.86,2.17-1.68,3.28-2.48.51-.37,1-.73,1.55-1.08l.27-.19q.68-.47,1.35-.9l.4-.25c.5-.33,1-.65,1.52-1a90.92,90.92,0,0,1,12.57-6.42l1.43-.58c.51-.2,1-.4,1.51-.58s.86-.33,1.29-.47c.87-.32,1.73-.62,2.59-.9l.1.2c.08.17.17.33.26.49l.3.48c.11.16.22.31.34.46s.24.3.37.45.27.29.41.43a12.19,12.19,0,0,0,.92.82c.16.13.33.26.51.38s.35.25.53.37l.57.35c.19.12.39.23.59.34.4.22.83.43,1.26.63l.67.29.69.27c.46.18,1,.35,1.44.5s.91.28,1.39.41l1,.26.68.15a39,39,0,0,0,4.43.69l.6.06a47.8,47.8,0,0,0,7.18.12l1.54-.11c1.15-.1,2.28-.25,3.38-.44.55-.09,1.09-.2,1.62-.31s1.06-.24,1.57-.37a27.35,27.35,0,0,0,2.94-.94q.35-.12.69-.27l.67-.29c.43-.19.85-.4,1.25-.62s.78-.44,1.15-.68c.18-.12.36-.24.53-.37l.5-.38c.15-.11.29-.23.42-.34l.08-.07.42-.4.41-.42.37-.45c.12-.15.23-.3.34-.46l.27-.42a.41.41,0,0,0,0-.09,4.92,4.92,0,0,0,.24-.45,1.24,1.24,0,0,0,.1-.2l1.78.6,1.71.63,1.15.44,1.09.43c1,.38,1.92.79,2.88,1.22l.57.26.49.22.87.4.95.46,1.15.57c.38.18.76.38,1.14.58l1.15.61,1.14.63a1.23,1.23,0,0,1,.25.14c.24.12.47.26.71.4l.17.1c.38.22.76.44,1.13.67.75.44,1.5.91,2.24,1.38l.85.55c.82.54,1.64,1.09,2.44,1.67q.56.38,1.08.78l1.29,1c.45.33.89.68,1.33,1h0A72.4,72.4,0,0,1,158.56,181.05Z" fill="#b02b3b" fill-rule="evenodd"/><path d="M58.63,191.06h82.75a100.21,100.21,0,0,1-82.75,0Z" fill="#3a281f" fill-rule="evenodd"/><path d="M149.07,172a89.41,89.41,0,0,0-27.56-14.75c-4.93,10.92-37.95,10.87-42.82-.06A89.38,89.38,0,0,0,50.93,172Z" fill="#3a281f" fill-rule="evenodd"/><path d="M100,143c-45.77,1.1-68.88-111.78,0-108.88C168.88,31.25,145.77,144.13,100,143Z" fill="#ecbf97" fill-rule="evenodd"/><path d="M84.62,88.55a4.1,4.1,0,1,1-5.73.92A4.09,4.09,0,0,1,84.62,88.55Z" fill="#21201e" fill-rule="evenodd"/><path d="M115.63,88.55a4.1,4.1,0,1,0,5.74.92A4.1,4.1,0,0,0,115.63,88.55Z" fill="#21201e" fill-rule="evenodd"/><path d="M79.57,103.43c2.33,1.8,2.43,4.42.22,5.87s-5.89,1.17-8.23-.63-2.44-4.42-.23-5.87S77.23,101.64,79.57,103.43Z" fill="#da9077" fill-rule="evenodd"/><path d="M120.69,103.43c-2.34,1.8-2.44,4.42-.23,5.87s5.9,1.17,8.23-.63,2.44-4.42.23-5.87S123,101.64,120.69,103.43Z" fill="#da9077" fill-rule="evenodd"/><path d="M86.41,77.42,86,77.23a11.86,11.86,0,0,0-5.23-.68,11.69,11.69,0,0,0-4.9,1.53c-.74.48-3.63,2.82-2.81,3.68.34.09,3.22-1.38,4.06-1.65a11.44,11.44,0,0,1,3.78-.51,10.12,10.12,0,0,1,3.46.71,3,3,0,0,1,.29.12c2.41,1.17,2.2,1.93,3.84.8C91,79.88,88.37,78.43,86.41,77.42Z" fill="#3f2716" fill-rule="evenodd"/><path d="M113.59,77.42l.46-.19a11.89,11.89,0,0,1,5.24-.68,11.69,11.69,0,0,1,4.89,1.53c.74.48,3.63,2.82,2.81,3.68-.34.09-3.21-1.38-4.06-1.65a11.44,11.44,0,0,0-3.78-.51,10.12,10.12,0,0,0-3.46.71,3,3,0,0,0-.29.12c-2.41,1.17-2.2,1.93-3.84.8C109,79.88,111.63,78.43,113.59,77.42Z" fill="#3f2716" fill-rule="evenodd"/><path d="M88.13,113q6.33-.08,12.62-.08t12.63.08c0,6.62-6.53,9-12.61,9h0C94.65,122,88.13,119.63,88.13,113Z" fill="#fff" fill-rule="evenodd"/><path d="M97.85,125.94a.49.49,0,0,1-.18-.68.5.5,0,0,1,.68-.18,4.85,4.85,0,0,0,2.42.6,4.65,4.65,0,0,0,2.38-.59.49.49,0,1,1,.51.84,5.61,5.61,0,0,1-2.89.75A5.89,5.89,0,0,1,97.85,125.94Z" fill="#d67f54" fill-rule="evenodd"/><path d="M99.63,103.93a.5.5,0,0,1,0-1,25,25,0,0,0,3.71-.19c.9-.16,1.57-.4,1.57-.81,0-1.43-1.45-10.31-1.45-10.33a.5.5,0,0,1,.41-.57.49.49,0,0,1,.56.41s1.47,9,1.47,10.49c0,1-1,1.55-2.4,1.78A23.67,23.67,0,0,1,99.63,103.93Z" fill="#d67f54" fill-rule="evenodd"/><path d="M147,108.18a.5.5,0,0,1-1,0,4.79,4.79,0,0,0-.68-3,1.16,1.16,0,0,0-.93-.46,2.74,2.74,0,0,0-1.35.41,8.89,8.89,0,0,0-3.39,4,18.75,18.75,0,0,0-.85,2.3,3.52,3.52,0,0,1,2.31-.67,2.13,2.13,0,0,1,1.07.39,1.72,1.72,0,0,1,.67.93,3.25,3.25,0,0,1-.69,2.69.49.49,0,0,1-.82-.55,2.38,2.38,0,0,0,.56-1.86.78.78,0,0,0-.3-.41,1.25,1.25,0,0,0-.58-.21,2.76,2.76,0,0,0-2.12.89,1.07,1.07,0,0,1-.5.32.54.54,0,0,1-.72-.48v0a1.89,1.89,0,0,1,0-.57,15,15,0,0,1,1.05-3.14,10,10,0,0,1,3.81-4.47,3.62,3.62,0,0,1,1.86-.54,2.15,2.15,0,0,1,1.68.82A5.75,5.75,0,0,1,147,108.18Z" fill="#d67f54" fill-rule="evenodd"/><path d="M54,108.18a.5.5,0,0,1-1,0,5.68,5.68,0,0,1,.91-3.6,2.12,2.12,0,0,1,1.67-.82,3.62,3.62,0,0,1,1.86.54,10,10,0,0,1,3.81,4.47,15,15,0,0,1,1,3.14,1.61,1.61,0,0,1,0,.57v0a.54.54,0,0,1-.72.48,1.07,1.07,0,0,1-.5-.32,2.76,2.76,0,0,0-2.12-.89,1.25,1.25,0,0,0-.58.21.78.78,0,0,0-.3.41,2.38,2.38,0,0,0,.56,1.86.49.49,0,0,1-.14.68.49.49,0,0,1-.68-.13,3.25,3.25,0,0,1-.69-2.69,1.72,1.72,0,0,1,.67-.93,2.13,2.13,0,0,1,1.07-.39,3.52,3.52,0,0,1,2.31.67,18.75,18.75,0,0,0-.85-2.3,8.89,8.89,0,0,0-3.39-4,2.74,2.74,0,0,0-1.35-.41,1.16,1.16,0,0,0-.93.46A4.79,4.79,0,0,0,54,108.18Z" fill="#d67f54" fill-rule="evenodd"/><path d="M56.4,90.8c.66,6.57,6.44,16.55,7.62,19.43s.13-9.32.13-24.94S56.4,90.8,56.4,90.8Z" fill="#7e593f" fill-rule="evenodd"/><path d="M143.79,90.8c-.65,6.57-6.43,16.55-7.61,19.43s-.13-9.32-.13-24.94S143.79,90.8,143.79,90.8Z" fill="#7e593f" fill-rule="evenodd"/><path d="M93.63,47.17c-5.5,0-10.72,10.31-11.18,18.93-1.66,30.57-31,20.05-34.29,39-1.19-3.54-4.18-15.49-4.5-17C41.28,77,56.07,64.07,58.85,52.09c2.83-12.21,9.84-21.7,18.53-26,7.59-3.73,16.09-3.58,20.16,1,1.27,1,2.46,2.2,2.46,2.2s1-1,2.2-2c4-5,12.78-5.25,20.68-1.2,8.51,4.36,15.5,14,18.27,26S158.72,77,156.34,88.15c-.32,1.5-3.31,13.45-4.5,17-3.26-19-29.57-9.53-32.79-40-1.12-10.56-6-15.73-10.62-16.61-.53-.1-4.4-1.29-8,4.32C99.55,54.28,98.94,47.17,93.63,47.17Z" fill="#4d3225" fill-rule="evenodd"/><path d="M49.4,96.23a.49.49,0,0,1-.69.13.48.48,0,0,1-.13-.68c.37-.55.74-1.11,1.1-1.67,2.84-4.34,5.24-8,15.2-10.61C74.28,80.93,76,69,77.54,58.56c.21-1.42.41-2.81.63-4.18a23.72,23.72,0,0,1,1.67-5.69,17.42,17.42,0,0,1,5.94-7.39,9.78,9.78,0,0,1,6.87-1.9,6.31,6.31,0,0,1,1.44.43l4.73,2.1a.49.49,0,0,1,.25.65.48.48,0,0,1-.65.25l-4.73-2.1a5.06,5.06,0,0,0-1.2-.35,8.82,8.82,0,0,0-6.15,1.74,16.38,16.38,0,0,0-5.59,7,21.9,21.9,0,0,0-1.6,5.45c-.21,1.32-.42,2.72-.63,4.16-1.56,10.72-3.35,23-13.39,25.65-9.59,2.51-11.89,6-14.62,10.21C50.16,95.09,49.8,95.64,49.4,96.23Z" fill="#4e2e14" fill-rule="evenodd"/><path d="M48.66,82.78a.49.49,0,0,1-.9-.4A12.77,12.77,0,0,1,52,76.88h0a18.74,18.74,0,0,1,6.28-2.68C67.72,71.74,69.46,59.79,71,49.37c.2-1.42.4-2.81.63-4.18a20.22,20.22,0,0,1,1.58-5.28,15.2,15.2,0,0,1,6.52-7.11,14.92,14.92,0,0,1,9.6-1.46A20.32,20.32,0,0,1,94.62,33a.49.49,0,1,1-.41.89,19.66,19.66,0,0,0-5.06-1.59,14,14,0,0,0-9,1.37,14.18,14.18,0,0,0-6.08,6.65,19.5,19.5,0,0,0-1.51,5c-.21,1.32-.41,2.72-.62,4.16-1.57,10.72-3.36,23-13.4,25.65a17.81,17.81,0,0,0-5.94,2.52h0A11.87,11.87,0,0,0,48.66,82.78Z" fill="#4e2e14" fill-rule="evenodd"/><path d="M153.12,95.68a.49.49,0,0,1-.81.55c-.41-.59-.77-1.14-1.12-1.67-2.73-4.18-5-7.7-14.62-10.21-10-2.63-11.83-14.93-13.39-25.65-.21-1.44-.41-2.84-.63-4.16A22.33,22.33,0,0,0,121,49.09a16.4,16.4,0,0,0-5.6-7,8.82,8.82,0,0,0-6.15-1.74,5.06,5.06,0,0,0-1.2.35l-4.73,2.1a.48.48,0,0,1-.65-.25.49.49,0,0,1,.25-.65l4.73-2.1a6.31,6.31,0,0,1,1.44-.43,9.78,9.78,0,0,1,6.87,1.9,17.42,17.42,0,0,1,5.94,7.39,22.85,22.85,0,0,1,1.67,5.69c.22,1.37.43,2.76.63,4.18,1.52,10.42,3.26,22.37,12.66,24.84,10,2.6,12.36,6.27,15.2,10.61C152.38,94.57,152.75,95.13,153.12,95.68Z" fill="#4e2e14" fill-rule="evenodd"/><path d="M153.94,82.38a.49.49,0,0,1-.9.4,11.87,11.87,0,0,0-4-5.1l0,0a18,18,0,0,0-5.92-2.5c-10-2.63-11.83-14.93-13.39-25.65-.21-1.44-.42-2.84-.63-4.16a19.12,19.12,0,0,0-1.51-5,13.59,13.59,0,0,0-15.06-8,19.78,19.78,0,0,0-5.06,1.59.49.49,0,1,1-.41-.89,20.43,20.43,0,0,1,5.31-1.67A15,15,0,0,1,122,32.8a15.23,15.23,0,0,1,6.51,7.11,20.61,20.61,0,0,1,1.59,5.28c.22,1.37.42,2.76.63,4.18,1.51,10.42,3.26,22.37,12.66,24.83a18.88,18.88,0,0,1,6.24,2.66l0,0A12.71,12.71,0,0,1,153.94,82.38Z" fill="#4e2e14" fill-rule="evenodd"/></svg>