<svg id="Layer_2" data-name="Layer 2" xmlns="http://www.w3.org/2000/svg" viewBox="0 0 200 200"><title>Artwork landing page</title><path d="M200,100A100,100,0,1,1,100,0,99.87,99.87,0,0,1,200,100Z" fill="#0c8a76" fill-rule="evenodd"/><path d="M156.71,182.37a100,100,0,0,1-113.41,0C53,170.83,66.17,163,78.53,158.7l1.58-.53a83.11,83.11,0,0,0,1.18-9.65c0-.42.06-.83.08-1.24s0-.81.07-1.2,0-.8,0-1.19c0-.78.06-1.53.08-2.25,0-.39,0-.77,0-1.13,0-.66,0-1.29,0-1.87,0-2.87-.06-4.73-.06-4.73h36.89s-.07,1.86-.06,4.73c0,.57,0,1.18,0,1.82v.22c0,1.08,0,2.25.11,3.48,0,.3,0,.6,0,.91,0,.61.07,1.23.11,1.86a85.17,85.17,0,0,0,1.22,10.24l1.55.52C133.82,163,147,170.82,156.71,182.37Z" fill="#59566d" fill-rule="evenodd"/><path d="M60.93,105.8c-.18-1.9-7.94-4.14-10.53,2.07s2.07,15,10.87,15.69,6.21-.86,6.21-.86Z" fill="#e4af7c" fill-rule="evenodd"/><path d="M139.26,105.8c.17-1.9,7.94-4.14,10.52,2.07s-2.07,15-10.86,15.69-6.21-.86-6.21-.86Z" fill="#e4af7c" fill-rule="evenodd"/><path d="M118.68,147.93c-8,15.28-28.56,16.88-37.4.59.24-3.33.31-6.47.32-8.89h36.8C118.41,141.91,118.48,144.82,118.68,147.93Z" fill="#d67f54" fill-rule="evenodd"/><path d="M100,147.62c-45.77,1.1-68.88-111.77,0-108.88C168.88,35.85,145.77,148.72,100,147.62Z" fill="#e4af7c" fill-rule="evenodd"/><path d="M151,47.74c1.9.36,1.65,1.93-3.91,5.86C152.2,60.08,153,70.37,151.24,80c-.38,2.06-6.18,16.67-11.65,26.25-.51.89-.17-19-5.91-26.92-2.91-4-5.31-8.81-11.24-12.78-.06,1.13,3.46,4.21,2.15,4.83-5,2.37-19.2-.08-25.75-1.74,1.89,1.94,3.81,3.35,3.09,4.06-2.26,2.21-16.5-1.24-25.3-7.15-2.13,7-5.14,14.51-8.52,16.5-9,5.32-5.11,27.81-7.48,24.51C49.73,92.43,52.48,72.8,52.48,72.8a50,50,0,0,0-3.09,4.85C47.88,80.78,46.86,52,60.53,48.28c0,0-2.16-.75-7.71.29-2,.38,4-5.23,10.52-6,.19-2.83,1.45-14.2,9.77-17.87C77,23,83.28,21.88,82.48,22.37a12.07,12.07,0,0,0-5.1,5.74c30.43-14.36,44.27.9,56.19,10.47C137.18,41.47,144.81,47.26,151,47.74Z" fill="#36263e" fill-rule="evenodd"/><path d="M116.43,96.34a2.74,2.74,0,1,0,3.83.61A2.72,2.72,0,0,0,116.43,96.34Z" fill="#21201e" fill-rule="evenodd"/><path d="M78.82,96.34a2.74,2.74,0,1,0,3.82.61A2.72,2.72,0,0,0,78.82,96.34Z" fill="#21201e" fill-rule="evenodd"/><path d="M79.57,110.11c2.33,1.8,2.43,4.42.22,5.87s-5.89,1.17-8.23-.63-2.44-4.42-.23-5.86S77.23,108.32,79.57,110.11Z" fill="#da9077" fill-rule="evenodd"/><path d="M120.69,110.11c-2.34,1.8-2.44,4.42-.23,5.87s5.9,1.17,8.23-.63,2.44-4.42.23-5.86S123,108.32,120.69,110.11Z" fill="#da9077" fill-rule="evenodd"/><path d="M86.41,84.1,86,83.91a11.86,11.86,0,0,0-5.23-.68,11.69,11.69,0,0,0-4.9,1.53c-.74.48-3.63,2.82-2.81,3.68.34.09,3.22-1.38,4.06-1.65a11.44,11.44,0,0,1,3.78-.51,10.12,10.12,0,0,1,3.46.71,3,3,0,0,1,.29.12c2.41,1.17,2.2,1.93,3.84.8C91,86.56,88.37,85.11,86.41,84.1Z" fill="#3f2716" fill-rule="evenodd"/><path d="M113.59,84.1l.46-.19a11.89,11.89,0,0,1,5.24-.68,11.69,11.69,0,0,1,4.89,1.53c.74.48,3.63,2.82,2.81,3.68-.34.09-3.22-1.38-4.06-1.65a11.44,11.44,0,0,0-3.78-.51,10.12,10.12,0,0,0-3.46.71,3,3,0,0,0-.29.12c-2.41,1.17-2.2,1.93-3.84.8C109,86.56,111.63,85.11,113.59,84.1Z" fill="#3f2716" fill-rule="evenodd"/><path d="M99.63,114.66a.5.5,0,1,1,0-1,23.68,23.68,0,0,0,3.71-.2c.9-.15,1.57-.4,1.57-.81,0-1.43-1.45-10.3-1.45-10.33a.49.49,0,1,1,1-.15s1.47,9,1.47,10.48c0,1-1,1.55-2.4,1.79A24.84,24.84,0,0,1,99.63,114.66Z" fill="#d67f54" fill-rule="evenodd"/><path d="M147,112.77a.5.5,0,0,1-1,0,4.79,4.79,0,0,0-.68-3,1.19,1.19,0,0,0-.93-.46,2.74,2.74,0,0,0-1.35.41,9,9,0,0,0-3.39,4,18.75,18.75,0,0,0-.85,2.3,3.52,3.52,0,0,1,2.31-.67,2.13,2.13,0,0,1,1.07.39,1.72,1.72,0,0,1,.67.93,3.25,3.25,0,0,1-.69,2.69.49.49,0,0,1-.82-.55,2.37,2.37,0,0,0,.56-1.85.76.76,0,0,0-.3-.42,1.15,1.15,0,0,0-.58-.2,2.69,2.69,0,0,0-2.12.89,1,1,0,0,1-.5.31.54.54,0,0,1-.72-.48v0a1.66,1.66,0,0,1,0-.58,15,15,0,0,1,1.05-3.14,10,10,0,0,1,3.81-4.47,3.62,3.62,0,0,1,1.86-.54,2.12,2.12,0,0,1,1.67.82A5.7,5.7,0,0,1,147,112.77Z" fill="#d67f54" fill-rule="evenodd"/><path d="M54,112.77a.5.5,0,0,1-1,0,5.7,5.7,0,0,1,.91-3.6,2.12,2.12,0,0,1,1.67-.82,3.62,3.62,0,0,1,1.86.54,10,10,0,0,1,3.81,4.47,15,15,0,0,1,1,3.14,1.66,1.66,0,0,1,0,.58v0a.54.54,0,0,1-.72.48,1,1,0,0,1-.5-.31,2.69,2.69,0,0,0-2.12-.89,1.15,1.15,0,0,0-.58.2.76.76,0,0,0-.3.42,2.37,2.37,0,0,0,.56,1.85.49.49,0,0,1-.82.55,3.25,3.25,0,0,1-.69-2.69,1.72,1.72,0,0,1,.67-.93,2.13,2.13,0,0,1,1.07-.39,3.52,3.52,0,0,1,2.31.67,18.75,18.75,0,0,0-.85-2.3,9,9,0,0,0-3.39-4,2.74,2.74,0,0,0-1.35-.41,1.2,1.2,0,0,0-.93.46A4.79,4.79,0,0,0,54,112.77Z" fill="#d67f54" fill-rule="evenodd"/><path d="M80.89,145.85c-.51-.21-1.81-.2-1.81.72s.93,4.41.27,6.93-1.88,4.85-.53,5.38a59.88,59.88,0,0,0,42.32,0c1.36-.53.18-2.72-.53-5.38s.27-5.94.27-6.93-1.3-.93-1.81-.72A48.41,48.41,0,0,1,80.89,145.85Z" fill="#69637f" fill-rule="evenodd"/><path d="M82.45,148.17a.49.49,0,0,1,.51-.47.48.48,0,0,1,.48.5c0,.68,0,1.32,0,2,0,1.31,0,2.64-.17,4.21a11,11,0,0,1-1.54,4.55.49.49,0,0,1-.68.16.5.5,0,0,1-.15-.69,10.06,10.06,0,0,0,1.39-4.1c.13-1.58.14-2.87.16-4.14C82.42,149.49,82.43,148.84,82.45,148.17Z" fill="#59566d" fill-rule="evenodd"/><path d="M86.52,149.62a.5.5,0,0,1,.51-.48.49.49,0,0,1,.48.51c0,.68,0,1.31,0,1.95,0,1.31,0,2.64-.16,4.21a11.3,11.3,0,0,1-1.55,4.56.49.49,0,1,1-.83-.53,10.22,10.22,0,0,0,1.39-4.11c.13-1.58.14-2.87.16-4.14C86.49,150.93,86.5,150.28,86.52,149.62Z" fill="#59566d" fill-rule="evenodd"/><path d="M90.79,150.41a.5.5,0,0,1,1,0c0,.67,0,1.31,0,1.95,0,1.31,0,2.64-.16,4.21A11.2,11.2,0,0,1,90,161.16a.5.5,0,0,1-.68.15.49.49,0,0,1-.15-.68,10.11,10.11,0,0,0,1.38-4.11c.14-1.58.15-2.87.16-4.14C90.76,151.72,90.77,151.07,90.79,150.41Z" fill="#59566d" fill-rule="evenodd"/><path d="M95.19,151.19a.51.51,0,0,1,.51-.48.5.5,0,0,1,.48.51c0,.68,0,1.32,0,2,0,1.31,0,2.64-.16,4.21A11.37,11.37,0,0,1,94.44,162a.52.52,0,0,1-.69.15.51.51,0,0,1-.15-.69,9.74,9.74,0,0,0,1.39-4.1c.13-1.58.15-2.87.16-4.14C95.16,152.51,95.17,151.86,95.19,151.19Z" fill="#59566d" fill-rule="evenodd"/><path d="M116,148.2a.49.49,0,0,1,.48-.5.49.49,0,0,1,.51.47c0,.67,0,1.32,0,2,0,1.27,0,2.56.16,4.14a10.06,10.06,0,0,0,1.39,4.1.5.5,0,0,1-.15.69.49.49,0,0,1-.68-.16,11,11,0,0,1-1.55-4.55c-.13-1.57-.14-2.9-.16-4.21C116.07,149.52,116.07,148.88,116,148.2Z" fill="#59566d" fill-rule="evenodd"/><path d="M112,149.65a.51.51,0,0,1,.48-.51.49.49,0,0,1,.51.48c0,.66,0,1.31,0,2,0,1.27,0,2.56.16,4.14a10.22,10.22,0,0,0,1.39,4.11.49.49,0,1,1-.83.53,11.13,11.13,0,0,1-1.55-4.56c-.13-1.57-.14-2.9-.16-4.21C112,151,112,150.33,112,149.65Z" fill="#59566d" fill-rule="evenodd"/><path d="M107.71,150.44a.49.49,0,0,1,.48-.51.49.49,0,0,1,.51.48c0,.66,0,1.31,0,2,0,1.27,0,2.56.16,4.14a10.22,10.22,0,0,0,1.39,4.11.49.49,0,0,1-.15.68.5.5,0,0,1-.68-.15,11.13,11.13,0,0,1-1.55-4.56c-.13-1.57-.14-2.9-.16-4.21C107.74,151.75,107.73,151.11,107.71,150.44Z" fill="#59566d" fill-rule="evenodd"/><path d="M103.31,151.22a.49.49,0,0,1,.48-.51.51.51,0,0,1,.51.48c0,.67,0,1.32,0,2,0,1.27,0,2.56.16,4.14a10.06,10.06,0,0,0,1.39,4.1.5.5,0,0,1-.15.69.51.51,0,0,1-.68-.15,11.3,11.3,0,0,1-1.55-4.56c-.13-1.57-.14-2.9-.16-4.21C103.34,152.54,103.33,151.9,103.31,151.22Z" fill="#59566d" fill-rule="evenodd"/><path d="M99.3,151.21a.5.5,0,1,1,1,0l0,10.47a.49.49,0,0,1-1,0Z" fill="#59566d" fill-rule="evenodd"/><path d="M72.89,44.3a.49.49,0,0,1,.2-.67.5.5,0,0,1,.68.2c2.72,5.06,8.39,9.5,14.92,13.05a79.68,79.68,0,0,0,24.89,8.49.49.49,0,0,1-.14,1,80.71,80.71,0,0,1-25.23-8.6C81.53,54.12,75.72,49.55,72.89,44.3Z" fill="#442e4d" fill-rule="evenodd"/><path d="M78.45,40a.5.5,0,0,1-.5-.49.51.51,0,0,1,.5-.5,70.1,70.1,0,0,1,22.18,3.64,80.7,80.7,0,0,1,21,10.7,51.69,51.69,0,0,1,15,15.49A47.6,47.6,0,0,1,143,90.64a.49.49,0,0,1-.46.53.5.5,0,0,1-.53-.46,46.73,46.73,0,0,0-6.3-21.4A50.73,50.73,0,0,0,121,54.12a79.68,79.68,0,0,0-20.71-10.58A69.33,69.33,0,0,0,78.45,40Z" fill="#442e4d" fill-rule="evenodd"/><path d="M82.07,35.45a.49.49,0,1,1-.41-.89c20.35-9.38,33.6-.05,45,8,2.83,2,5.54,3.9,8.2,5.41a.49.49,0,0,1,.19.67.51.51,0,0,1-.68.19c-2.71-1.54-5.44-3.46-8.28-5.46C114.91,35.47,101.91,26.32,82.07,35.45Z" fill="#442e4d" fill-rule="evenodd"/><path d="M68.81,52.62a.49.49,0,0,1,.47-.51.49.49,0,0,1,.52.46,29.18,29.18,0,0,1-1.92,10.19,34.91,34.91,0,0,1-5,9.71A19.76,19.76,0,0,0,59,83.33a.5.5,0,0,1-.51.49.49.49,0,0,1-.48-.5,20.78,20.78,0,0,1,4.1-11.46A34.1,34.1,0,0,0,67,62.43,28.24,28.24,0,0,0,68.81,52.62Z" fill="#442e4d" fill-rule="evenodd"/><path d="M90.92,121C94,121,97,121,100,121s6,0,9.08.08c0,6.62-4.7,9-9.06,9h0C95.62,130,90.92,127.65,90.92,121Z" fill="#fff" fill-rule="evenodd"/><path d="M108.46,124.76c-1.41,3.81-5,5.25-8.44,5.25h0c-3.41,0-7-1.44-8.44-5.25q4.23-.06,8.46-.06C102.82,124.7,105.63,124.72,108.46,124.76Z" fill="#89352a" fill-rule="evenodd"/><path d="M97.1,134.17a.49.49,0,0,1-.18-.68.5.5,0,0,1,.68-.17,5,5,0,0,0,2.42.6,4.65,4.65,0,0,0,2.38-.6.49.49,0,0,1,.68.17.5.5,0,0,1-.17.68,5.7,5.7,0,0,1-2.89.74A5.89,5.89,0,0,1,97.1,134.17Z" fill="#d67f54" fill-rule="evenodd"/></svg>