<svg id="Layer_2" data-name="Layer 2" xmlns="http://www.w3.org/2000/svg" viewBox="0 0 200 200"><title>Artwork landing page</title><path d="M200,100a99.72,99.72,0,0,1-36.57,77.29c-2.16,1.79-4.41,3.48-6.72,5.08a100,100,0,0,1-113.41,0q-3.47-2.38-6.72-5.07A100,100,0,1,1,200,100Z" fill="#2d2c71" fill-rule="evenodd"/><path d="M163.42,177.29c-2.16,1.79-4.41,3.48-6.72,5.08a100,100,0,0,1-113.41,0q-3.47-2.38-6.72-5.07c.43-.77.87-1.53,1.33-2.27l.6-.95c.2-.31.4-.62.61-.93.41-.62.83-1.23,1.26-1.82l.66-.9.76-1c.4-.51.8-1,1.21-1.5l.07-.08c.46-.57.94-1.13,1.43-1.67l.73-.81c.24-.27.49-.53.74-.8.83-.88,1.68-1.74,2.55-2.57q.65-.63,1.32-1.23l1.1-1c.44-.39.89-.77,1.34-1.14l.83-.68,1-.82,1.5-1.15a84,84,0,0,1,10.63-6.71l.08,0q1.26-.68,2.52-1.29l0,0c.8-.39,1.6-.77,2.4-1.13l1-.42c.76-.34,1.52-.66,2.28-1l1.4-.55,1.3-.5a.49.49,0,0,0,.17-.06l1.32-.46,1.38-.47c.1-.51.19-1,.27-1.54a104.5,104.5,0,0,0,1.19-13.77c0-.47,0-.92,0-1.35h0c.07-3.9,0-6.59,0-6.59h36.9s-.07,1.86-.06,4.72c0,.58,0,1.21,0,1.87h0c0,1.92.1,4.13.26,6.45a82.71,82.71,0,0,0,1.22,10.21l1.43.48,1.31.47,1.38.52c.86.33,1.73.69,2.6,1l1.55.68c.47.2.93.41,1.39.63s.93.43,1.39.66c.82.4,1.63.81,2.44,1.24l.16.09c.32.16.65.33,1,.51a81,81,0,0,1,14.3,9.88q.35.28.69.6c1,.88,2,1.8,2.93,2.75l.9.9a65.13,65.13,0,0,1,8.81,11.29c.19.3.37.6.55.91S163.19,176.86,163.42,177.29Z" fill="#ecbf97" fill-rule="evenodd"/><path d="M118.7,133.13c-2.31,4.41-10.37,8.63-18.7,8.7-8,.06-16.39-3.87-18.7-8.11.24-3.33.31-6.47.32-8.89h36.79C118.43,127.11,118.49,130,118.7,133.13Z" fill="#d67f54" fill-rule="evenodd"/><path d="M60.93,91c-.18-1.9-7.94-4.14-10.53,2.07s2.07,15,10.87,15.7,6.21-.86,6.21-.86Z" fill="#ecbf97" fill-rule="evenodd"/><path d="M162.7,176q.38.61.72,1.26c-2.16,1.79-4.41,3.48-6.72,5.08a100,100,0,0,1-113.41,0q-3.47-2.38-6.72-5.07c.43-.77.87-1.53,1.33-2.27l.6-.95c.2-.31.4-.62.61-.93.41-.62.83-1.23,1.26-1.82l.66-.9.76-1c.4-.51.8-1,1.21-1.5l.07-.08c.47-.57.94-1.12,1.43-1.67l.73-.81c.24-.27.49-.53.74-.8.83-.88,1.68-1.74,2.55-2.57l1.32-1.23,1.1-1,1.34-1.14.83-.68,1-.82,1.5-1.15a84,84,0,0,1,10.63-6.71l.08,0c.89-.45,1.74-.88,2.52-1.29l0,0c.8-.39,1.6-.77,2.4-1.13l1-.42c.76-.34,1.52-.66,2.28-1l1.4-.55,1.3-.5a.49.49,0,0,0,.17-.06l1.32-.46,1.38-.47c.1-.51.19-1,.27-1.54,8,3.54,23,7.46,39.33.47.06.36.13.72.2,1.07l1.43.48,1.31.47,1.38.52c.86.33,1.73.69,2.6,1l1.55.68c.47.2.93.41,1.39.63s.93.43,1.39.66c.76.4,1.58.81,2.44,1.24l.16.09.31.15.66.36a81,81,0,0,1,14.3,9.88q.35.28.69.6c1,.88,2,1.8,2.93,2.75l.9.9a65.13,65.13,0,0,1,8.81,11.29C162.34,175.42,162.52,175.72,162.7,176Z" fill="#585856" fill-rule="evenodd"/><path d="M139.26,91c.17-1.9,7.94-4.14,10.52,2.07s-2.07,15-10.86,15.7-6.21-.86-6.21-.86Z" fill="#ecbf97" fill-rule="evenodd"/><path d="M100,132.82C54.23,133.92,31.12,21,100,23.93,168.88,21,145.77,133.92,100,132.82Z" fill="#ecbf97" fill-rule="evenodd"/><path d="M147,98a.5.5,0,1,1-1,0,4.83,4.83,0,0,0-.68-3,1.2,1.2,0,0,0-.93-.46A2.76,2.76,0,0,0,143,95a8.89,8.89,0,0,0-3.39,4,18.75,18.75,0,0,0-.85,2.3,3.52,3.52,0,0,1,2.31-.67,2.22,2.22,0,0,1,1.07.38,1.75,1.75,0,0,1,.67.94,3.23,3.23,0,0,1-.69,2.68.49.49,0,0,1-.68.14.5.5,0,0,1-.14-.69,2.35,2.35,0,0,0,.56-1.85.78.78,0,0,0-.3-.41,1.25,1.25,0,0,0-.58-.21,2.76,2.76,0,0,0-2.12.89,1.07,1.07,0,0,1-.5.32.54.54,0,0,1-.72-.48v0a1.67,1.67,0,0,1,0-.58,15.16,15.16,0,0,1,1.05-3.13,10,10,0,0,1,3.81-4.47,3.73,3.73,0,0,1,1.86-.55,2.13,2.13,0,0,1,1.67.83A5.67,5.67,0,0,1,147,98Z" fill="#d67f54" fill-rule="evenodd"/><path d="M54,98a.5.5,0,1,1-1,0,5.74,5.74,0,0,1,.9-3.59,2.16,2.16,0,0,1,1.68-.83,3.73,3.73,0,0,1,1.86.55,10,10,0,0,1,3.81,4.47,15.16,15.16,0,0,1,1,3.13,1.67,1.67,0,0,1,0,.58v0a.54.54,0,0,1-.72.48,1.07,1.07,0,0,1-.5-.32,2.76,2.76,0,0,0-2.12-.89,1.25,1.25,0,0,0-.58.21.78.78,0,0,0-.3.41,2.35,2.35,0,0,0,.56,1.85.5.5,0,0,1-.14.69.49.49,0,0,1-.68-.14,3.23,3.23,0,0,1-.69-2.68,1.75,1.75,0,0,1,.67-.94,2.22,2.22,0,0,1,1.07-.38,3.52,3.52,0,0,1,2.31.67,18.75,18.75,0,0,0-.85-2.3A8.89,8.89,0,0,0,57,95a2.76,2.76,0,0,0-1.35-.42,1.19,1.19,0,0,0-.93.46A4.83,4.83,0,0,0,54,98Z" fill="#d67f54" fill-rule="evenodd"/><path d="M59.29,90.27c.56-1.63.91-5,.85-9.4-.09-6.09,8.35-9.09,7.34-17.81-3-25.6,16.88-16.93,32.52-16.92V23.93h0C60.32,22.27,51.17,59,59.29,90.27Z" fill="#414042" fill-rule="evenodd"/><path d="M140.85,89.72a43.94,43.94,0,0,1-1-8.85c-.23-6.08-8.35-9.09-7.34-17.81,3-25.6-16.88-16.93-32.52-16.92V23.93C139.45,22.28,148.72,58.59,140.85,89.72Z" fill="#414042" fill-rule="evenodd"/><path d="M84.62,80.43a4.1,4.1,0,1,1-5.73.92A4.09,4.09,0,0,1,84.62,80.43Z" fill="#21201e" fill-rule="evenodd"/><path d="M115.63,80.43a4.1,4.1,0,1,0,5.74.92A4.1,4.1,0,0,0,115.63,80.43Z" fill="#21201e" fill-rule="evenodd"/><path d="M79.56,95.31c2.34,1.79,2.44,4.42.23,5.87s-5.89,1.16-8.23-.63-2.44-4.42-.23-5.87S77.23,93.52,79.56,95.31Z" fill="#da9077" fill-rule="evenodd"/><path d="M120.69,95.31c-2.34,1.79-2.44,4.42-.23,5.87s5.9,1.16,8.23-.63,2.44-4.42.23-5.87S123,93.52,120.69,95.31Z" fill="#da9077" fill-rule="evenodd"/><path d="M86.41,69.3,86,69.11a11.74,11.74,0,0,0-5.24-.68A11.55,11.55,0,0,0,75.82,70c-.74.48-3.63,2.82-2.81,3.68.34.09,3.22-1.38,4.06-1.65a11.44,11.44,0,0,1,3.78-.51,10.41,10.41,0,0,1,3.46.7s.24.11.29.12c2.41,1.18,2.2,1.93,3.84.8C91,71.75,88.37,70.31,86.41,69.3Z" fill="#3f2716" fill-rule="evenodd"/><path d="M113.59,69.3l.46-.19a11.72,11.72,0,0,1,5.23-.68,11.55,11.55,0,0,1,4.9,1.53c.74.48,3.63,2.82,2.81,3.68-.34.09-3.22-1.38-4.06-1.65a11.44,11.44,0,0,0-3.78-.51,10.36,10.36,0,0,0-3.46.7s-.24.11-.29.12c-2.41,1.18-2.2,1.93-3.84.8C109,71.75,111.63,70.31,113.59,69.3Z" fill="#3f2716" fill-rule="evenodd"/><path d="M97.85,117.81a.48.48,0,0,1-.18-.67.49.49,0,0,1,.68-.18,4.85,4.85,0,0,0,2.42.6,4.65,4.65,0,0,0,2.38-.6.5.5,0,1,1,.51.85,5.6,5.6,0,0,1-2.89.74A5.79,5.79,0,0,1,97.85,117.81Z" fill="#d67f54" fill-rule="evenodd"/><path d="M99.63,99.85a.49.49,0,0,1-.5-.49.5.5,0,0,1,.5-.5,25,25,0,0,0,3.71-.19c.9-.16,1.57-.4,1.57-.81,0-1.43-1.45-10.31-1.45-10.33a.49.49,0,1,1,1-.16s1.47,9,1.47,10.49c0,1-1,1.55-2.4,1.78A24.84,24.84,0,0,1,99.63,99.85Z" fill="#d67f54" fill-rule="evenodd"/><path d="M95.71,83.64a13.51,13.51,0,0,0-.41-2,14.67,14.67,0,0,0-3.74-6.37A14.42,14.42,0,0,0,88.65,73a14.62,14.62,0,0,0-15.73.51,14,14,0,0,0-2.11,1.74,14.61,14.61,0,0,0-4.26,9.45c0,.3,0,.61,0,.92s0,.78,0,1.17a14.56,14.56,0,0,0,3.82,8.76q.19.22.42.45a14.6,14.6,0,0,0,10,4.28h.42A14.65,14.65,0,0,0,95.85,85.61,12.78,12.78,0,0,0,95.71,83.64ZM89.8,94.23a12.1,12.1,0,0,1-8.5,3.57h-.11a12.12,12.12,0,0,1-8.62-3.57l-.1-.1A12.19,12.19,0,1,1,93.16,83.4a9.1,9.1,0,0,1,.17,1.29c0,.3,0,.61,0,.92A12.12,12.12,0,0,1,89.8,94.23Z" fill="#2f1f12" fill-rule="evenodd"/><path d="M133.44,84.67a14.51,14.51,0,0,0-4.26-9.43,14,14,0,0,0-2.11-1.74,14.66,14.66,0,0,0-22.37,8.11,12.39,12.39,0,0,0-.42,2,12.78,12.78,0,0,0-.14,2,13.56,13.56,0,0,0,.07,1.43,14.15,14.15,0,0,0,.68,3.19,14.65,14.65,0,0,0,13.92,10c.22,0,.44,0,.66,0A14.59,14.59,0,0,0,129.18,96c.19-.19.38-.39.56-.59a14.61,14.61,0,0,0,3.69-8.63c0-.38,0-.77,0-1.16S133.47,85,133.44,84.67Zm-5.86,9.4-.15.16A12.15,12.15,0,0,1,119,97.8h-.14a12.19,12.19,0,0,1-12.19-12.19,9.1,9.1,0,0,1,0-.91,9.38,9.38,0,0,1,.17-1.31,12.19,12.19,0,1,1,20.75,10.68Z" fill="#2f1f12" fill-rule="evenodd"/><path d="M67.32,84.41A1,1,0,0,1,68,86.27l-8.74,3.15a1,1,0,0,1-1.27-.6,1,1,0,0,1,.6-1.26Z" fill="#2f1f12" fill-rule="evenodd"/><path d="M132.05,86.27a1,1,0,1,1,.67-1.86l8.74,3.15a1,1,0,0,1,.59,1.26,1,1,0,0,1-1.26.6Z" fill="#2f1f12" fill-rule="evenodd"/><path d="M94.83,84.47a1,1,0,0,1-1.36.33,1,1,0,0,1-.33-1.36s1.68-2.86,6.86-2.86,6.85,2.85,6.86,2.86a1,1,0,1,1-1.69,1s-1.11-1.9-5.17-1.9S94.83,84.46,94.83,84.47Z" fill="#2f1f12" fill-rule="evenodd"/><path d="M115.53,104.55c-6.24,2.32-25.18,2.27-31.06.28C87.72,116.67,112.37,116.48,115.53,104.55Z" fill="#fff" fill-rule="evenodd"/><path d="M60.81,46.8c3,.51,8.85.59,11.84-.51,6.51-3.44,13.67,1,27.35.87,6.26,0,22.88-1.37,28.64-8.13,2.86-3.36,1.35,2.48-4.21,6.27,3.3,1.22,10.78,2.6,14.83,1.66-5.89-14.07-18.32-23.91-39.26-23h0C79.13,23.06,66.72,32.81,60.81,46.8Z" fill="#231b12" fill-rule="evenodd"/></svg>