<svg id="Layer_2" data-name="Layer 2" xmlns="http://www.w3.org/2000/svg" viewBox="0 0 200 200"><title>Artwork landing page</title><path d="M200,100a99.72,99.72,0,0,1-36.57,77.29q-2.27,1.88-4.64,3.6c-.41.3-.81.59-1.23.87l-.85.61A100.19,100.19,0,0,1,81,198.19a97.83,97.83,0,0,1-17.5-5.08A99.09,99.09,0,0,1,43.3,182.37l-.86-.6c-.41-.29-.82-.58-1.22-.88q-2.37-1.71-4.64-3.59A100,100,0,1,1,200,100Z" fill="#4950a2" fill-rule="evenodd"/><path d="M168.3,160.3c0,7.95-5.83,12.86-12.79,17l-1.18.7c-2,1.18-4.11,2.3-6.16,3.43a17.3,17.3,0,0,0-8.27,10.25,99.68,99.68,0,0,1-19.51,6.2A48.56,48.56,0,0,1,104,177.69l-.45-1c-.42-1-.83-2-1.21-3-.54-1.4-1-2.85-1.5-4.34q-.72,2.31-1.55,4.47c-4,10.59-10,18.55-18.34,24.36a97.83,97.83,0,0,1-17.5-5.08,13.84,13.84,0,0,0-7.38-10.89c-3-1.66-6.54-3.07-10-4.67L44.88,177c-7.06-3.42-13.34-7.87-13.17-17.22.25-14,14.43-14.19,7.12-25s-10.36-25.24,2.1-35l.34-.28A15.67,15.67,0,0,1,44,96.69c9.52-11.26-10.15-10.88,3.06-32.59C52.64,55,63,48.68,71.18,45.43l0,0,.3-.11A35.89,35.89,0,0,1,79.93,43l.29,0h0c9.84-1,16,3,19.78,7.46l.15.18c.41.5.79,1,1.14,1.49a18.44,18.44,0,0,1,1.52-2,2.22,2.22,0,0,1,.28-.33,0,0,0,0,1,0,0,3.33,3.33,0,0,1,.36-.4c4-4.36,9.57-6.4,15.62-6.62a29.87,29.87,0,0,1,3,0,32,32,0,0,1,3.74.43h0c1,.16,2,.37,3,.62h0a45.67,45.67,0,0,1,13,5.51h0c13,8.07,22.08,22.45,14.91,37.3-.36.75-.76,1.49-1.2,2.24-2.83,4.77-1.06,5.38,1.43,7.77l.55.38a22.58,22.58,0,0,1,3.55,2.89c9.52,9.46,8.43,25.22,1.85,34.94C155.62,145.55,168.26,143.65,168.3,160.3Z" fill="#3a281f" fill-rule="evenodd"/><path d="M157.56,181.76l-.85.61A100.19,100.19,0,0,1,81,198.19a97.83,97.83,0,0,1-17.5-5.08A99.09,99.09,0,0,1,43.3,182.37l-.86-.6c1.18-1.47,2.41-2.87,3.69-4.22A81.58,81.58,0,0,1,73.2,159.13l.94-.39c1.56-.65,3.12-1.24,4.66-1.77l1.31-.44a96.28,96.28,0,0,0,1.41-14c0-.76,0-1.49.06-2.18h0a0,0,0,0,1,0,0V140c0-.22,0-.44,0-.65.05-3.63,0-6.12,0-6.12h36.89s-.08,2.29,0,5.7v.71c0,.19,0,.38,0,.57a0,0,0,0,1,0,0,.33.33,0,0,1,0,.14c0,.69,0,1.4.07,2.15a96.56,96.56,0,0,0,1.41,14l1.51.51c1.47.51,3,1.08,4.45,1.69l1,.4A81.16,81.16,0,0,1,154.33,178Q156,179.83,157.56,181.76Z" fill="#e4af7c" fill-rule="evenodd"/><path d="M118.45,133.26s-.1,2.6,0,6.39c-7,17.6-28.76,19.58-36.84.73.09-4.18,0-7.12,0-7.12Z" fill="#d67f54" fill-rule="evenodd"/><path d="M158.79,180.89c-.41.3-.81.59-1.23.87l-.85.61A100.19,100.19,0,0,1,81,198.19a97.83,97.83,0,0,1-17.5-5.08A99.09,99.09,0,0,1,43.3,182.37l-.86-.6c-.41-.29-.82-.58-1.22-.88q1.76-2,3.66-3.93a85,85,0,0,1,28.27-18.18l.93-.37q2.33-.9,4.62-1.65a2,2,0,0,0,.1.21c4.88,10.82,12.65,16.5,20.53,16.86a16.36,16.36,0,0,0,3-.13c7.28-.92,14.37-6.43,19-16.66a2,2,0,0,0,.1-.21c1.46.48,2.93,1,4.41,1.58l.94.37a84.87,84.87,0,0,1,28.65,18.56C156.64,178.48,157.74,179.67,158.79,180.89Z" fill="#bb495d" fill-rule="evenodd"/><path d="M100,199.93c1.37,0,2.49-5.25,2.49-11.68s-1.12-11.69-2.49-11.69-2.5,5.25-2.5,11.69S98.63,199.93,100,199.93Z" fill="#e4af7c" fill-rule="evenodd"/><path d="M73.12,158.59a.49.49,0,0,1,1-.12,21.41,21.41,0,0,0,8,13.4,21.9,21.9,0,0,0,14.78,4.81.5.5,0,0,1,0,1,23,23,0,0,1-15.44-5A22.48,22.48,0,0,1,73.12,158.59Z" fill="#b42a40" fill-rule="evenodd"/><path d="M125.9,158.47a.49.49,0,1,1,1,.12,22.5,22.5,0,0,1-8.3,14.06,23,23,0,0,1-15.45,5,.5.5,0,0,1,0-1A21.9,21.9,0,0,0,118,171.87,21.41,21.41,0,0,0,125.9,158.47Z" fill="#b42a40" fill-rule="evenodd"/><path d="M60.93,106.91C60.75,105,53,102.77,50.4,109s2.07,15,10.87,15.69,6.21-.86,6.21-.86Z" fill="#e4af7c" fill-rule="evenodd"/><path d="M139.26,106.91c.17-1.9,7.94-4.14,10.52,2.07s-2.07,15-10.86,15.69-6.21-.86-6.21-.86Z" fill="#e4af7c" fill-rule="evenodd"/><path d="M118.45,139.38s-.1,2.6,0,6.39c-7,17.6-28.76,19.58-36.84.73.09-4.18,0-7.12,0-7.12Z" fill="#d67f54" fill-rule="evenodd"/><path d="M100,148.73C54.23,149.83,31.12,37,100,39.85,168.88,37,145.77,149.83,100,148.73Z" fill="#e4af7c" fill-rule="evenodd"/><path d="M79.36,99.17a1.24,1.24,0,1,1-2.46.25,5.2,5.2,0,0,1,.15-1.92,5.46,5.46,0,0,1,.83-1.74,5.38,5.38,0,0,1,3.49-2.14,5.34,5.34,0,0,1,5.68,3,5.37,5.37,0,0,1,.5,2.64,1.24,1.24,0,1,1-2.47-.17,2.89,2.89,0,0,0-.27-1.42,2.74,2.74,0,0,0-.91-1.1,2.87,2.87,0,0,0-4,.64,2.73,2.73,0,0,0-.44.93A2.78,2.78,0,0,0,79.36,99.17Z" fill="#3a281f" fill-rule="evenodd"/><path d="M79.57,109.14c2.33,1.79,2.43,4.41.22,5.86s-5.89,1.17-8.23-.63-2.44-4.42-.23-5.86S77.23,107.34,79.57,109.14Z" fill="#da9077" fill-rule="evenodd"/><path d="M120.69,109.14c-2.34,1.79-2.44,4.41-.23,5.86s5.9,1.17,8.23-.63,2.44-4.42.23-5.86S123,107.34,120.69,109.14Z" fill="#da9077" fill-rule="evenodd"/><path d="M86.41,83.12,86,82.93a11.86,11.86,0,0,0-5.23-.68,11.69,11.69,0,0,0-4.9,1.53c-.74.48-3.63,2.82-2.81,3.68.34.1,3.22-1.37,4.06-1.65a11.44,11.44,0,0,1,3.78-.51,10.12,10.12,0,0,1,3.46.71,3,3,0,0,1,.29.12c2.41,1.17,2.2,1.93,3.84.8C91,85.58,88.37,84.14,86.41,83.12Z" fill="#3f2716" fill-rule="evenodd"/><path d="M113.59,83.12l.46-.19a11.89,11.89,0,0,1,5.24-.68,11.69,11.69,0,0,1,4.89,1.53c.74.48,3.63,2.82,2.81,3.68-.34.1-3.22-1.37-4.06-1.65a11.44,11.44,0,0,0-3.78-.51,10.12,10.12,0,0,0-3.46.71,3,3,0,0,0-.29.12c-2.41,1.17-2.2,1.93-3.84.8C109,85.58,111.63,84.14,113.59,83.12Z" fill="#3f2716" fill-rule="evenodd"/><path d="M88.13,118.71q6.33-.08,12.62-.08t12.63.08c0,6.62-6.53,9-12.61,9h0C94.65,127.7,88.13,125.33,88.13,118.71Z" fill="#fff" fill-rule="evenodd"/><path d="M97.85,131.64a.49.49,0,0,1-.18-.68.5.5,0,0,1,.68-.17,4.85,4.85,0,0,0,2.42.6,4.65,4.65,0,0,0,2.38-.6.49.49,0,0,1,.68.17.49.49,0,0,1-.17.67,5.61,5.61,0,0,1-2.89.75A5.89,5.89,0,0,1,97.85,131.64Z" fill="#d67f54" fill-rule="evenodd"/><path d="M99.63,109.63a.5.5,0,1,1,0-1,23.68,23.68,0,0,0,3.71-.2c.9-.15,1.57-.4,1.57-.81,0-1.43-1.45-10.3-1.45-10.33a.49.49,0,1,1,1-.15s1.47,9,1.47,10.48c0,1-1,1.55-2.4,1.79A24.84,24.84,0,0,1,99.63,109.63Z" fill="#d67f54" fill-rule="evenodd"/><path d="M147,113.88a.5.5,0,0,1-1,0,4.79,4.79,0,0,0-.68-3,1.19,1.19,0,0,0-.93-.46,2.74,2.74,0,0,0-1.35.41,9,9,0,0,0-3.39,4,18.75,18.75,0,0,0-.85,2.3,3.52,3.52,0,0,1,2.31-.67,2.13,2.13,0,0,1,1.07.39,1.72,1.72,0,0,1,.67.93,3.25,3.25,0,0,1-.69,2.69.48.48,0,0,1-.68.13.49.49,0,0,1-.14-.68,2.37,2.37,0,0,0,.56-1.85.76.76,0,0,0-.3-.42,1.15,1.15,0,0,0-.58-.2,2.69,2.69,0,0,0-2.12.89,1,1,0,0,1-.5.31.54.54,0,0,1-.72-.48v0a1.66,1.66,0,0,1,0-.58,15,15,0,0,1,1.05-3.14,10,10,0,0,1,3.81-4.47,3.71,3.71,0,0,1,1.86-.54,2.12,2.12,0,0,1,1.67.82A5.7,5.7,0,0,1,147,113.88Z" fill="#d67f54" fill-rule="evenodd"/><path d="M54,113.88a.5.5,0,0,1-1,0,5.7,5.7,0,0,1,.91-3.6,2.12,2.12,0,0,1,1.67-.82,3.71,3.71,0,0,1,1.86.54,10,10,0,0,1,3.81,4.47,15,15,0,0,1,1,3.14,1.66,1.66,0,0,1,0,.58v0a.54.54,0,0,1-.72.48,1,1,0,0,1-.5-.31,2.69,2.69,0,0,0-2.12-.89,1.15,1.15,0,0,0-.58.2.76.76,0,0,0-.3.42,2.37,2.37,0,0,0,.56,1.85.49.49,0,0,1-.14.68.48.48,0,0,1-.68-.13,3.25,3.25,0,0,1-.69-2.69,1.72,1.72,0,0,1,.67-.93,2.13,2.13,0,0,1,1.07-.39,3.52,3.52,0,0,1,2.31.67,18.75,18.75,0,0,0-.85-2.3,9,9,0,0,0-3.39-4,2.74,2.74,0,0,0-1.35-.41,1.2,1.2,0,0,0-.93.46A4.79,4.79,0,0,0,54,113.88Z" fill="#d67f54" fill-rule="evenodd"/><path d="M61.57,113.94C57,104.93,57,94.87,56.6,91,52.34,53.1,76,35.1,99.27,35.76H100V50.61c-4.28-1.41-7.92-2.26-9.86-2.26H88.73c-5.38,0-8,9-14.23,11.39-3.55,1.39-.16,17.78-3.82,26-.9,2-5.59,6.75-6.67,7.23C60.83,96.23,60.5,99.85,61.57,113.94Z" fill="#472a19" fill-rule="evenodd"/><path d="M138.43,113.94c4.61-9,4.54-19.07,5-22.93,4.26-37.91-19.35-55.91-42.67-55.25H100V50.61c4.28-1.41,7.92-2.26,9.86-2.26h1.41c5.38,0,8,11.46,14.23,13.88,3.55,1.39.16,15.29,3.82,23.54.9,2,5.59,6.75,6.68,7.23C139.17,96.23,139.5,99.85,138.43,113.94Z" fill="#472a19" fill-rule="evenodd"/><path d="M115.18,99.17a1.24,1.24,0,1,1-2.46.25,5.42,5.42,0,0,1,.16-1.92,5.25,5.25,0,0,1,.83-1.74,5.35,5.35,0,0,1,7.46-1.2,5.32,5.32,0,0,1,2.2,4.7,1.24,1.24,0,0,1-2.47-.17,3,3,0,0,0-.26-1.42,2.85,2.85,0,0,0-.92-1.1,2.91,2.91,0,0,0-2.14-.51,2.86,2.86,0,0,0-1.86,1.15,3,3,0,0,0-.45.93A3,3,0,0,0,115.18,99.17Z" fill="#3a281f" fill-rule="evenodd"/><path d="M72.81,62.09c20.7-14.42,11.78,11.16,29.27,11.23,8.7,0,16.67,3.55,16.53,10.93s-.2,10.65,7.79,14.49c15.47,7.43-14.06,33,24.69,34.45-4.05-18.7,15.18-24.75,8.67-41s-19.07-11.5-16.34-21.58c2.16-7.93,3.06-16.51-2.63-22.61-8.23-8.82-16.37.17-21.64-8.32-4.42-7.12-7-17.67-25.69-13.72C69.67,31,68.67,50,72.81,62.09Z" fill="#633b1d" fill-rule="evenodd"/><path d="M75.48,53.23a.5.5,0,0,1-.69.12.49.49,0,0,1-.12-.69,10.62,10.62,0,0,1,4.92-3.11,14.62,14.62,0,0,1,5.17-.86,9,9,0,0,1,5,1.54,8.47,8.47,0,0,1,3.06,4.26c1.54,4.43,3,6.88,4.94,8.26s4.55,1.72,8.4,1.91c4,.2,8.77.84,12.61,3s6.83,5.84,7,12.09c.2,5.94.9,9.25,2.18,11.25s3.1,2.7,5.62,3.52l.52.18a8.46,8.46,0,0,1,5.22,4.77c.9,2.26.89,5.21-.32,8.94-.12.36-.25.72-.38,1.07a19.18,19.18,0,0,0-1.23,10.18,7.61,7.61,0,0,0,4.24,5.87.49.49,0,0,1,.27.65.5.5,0,0,1-.65.26,8.56,8.56,0,0,1-4.83-6.59,20.17,20.17,0,0,1,1.27-10.72c.14-.36.26-.7.36-1,1.14-3.49,1.17-6.22.35-8.26a7.48,7.48,0,0,0-4.65-4.21l-.47-.16c-2.73-.89-4.74-1.71-6.16-3.94s-2.12-5.61-2.32-11.75c-.19-5.83-2.91-9.25-6.53-11.25s-8.29-2.65-12.17-2.85c-4-.2-6.76-.57-8.93-2.09s-3.69-4.11-5.3-8.74A7.5,7.5,0,0,0,89.24,51a8.11,8.11,0,0,0-4.5-1.37,14,14,0,0,0-4.83.81A9.66,9.66,0,0,0,75.48,53.23Z" fill="#774e31" fill-rule="evenodd"/><path d="M80.54,39a.49.49,0,1,1-.43-.89,18.88,18.88,0,0,1,3.26-1.21,20.38,20.38,0,0,1,8.91-.55,9.32,9.32,0,0,1,7.06,5A10,10,0,0,1,100,43a13.31,13.31,0,0,0,5.74,8.08A15.13,15.13,0,0,0,116,52.85a16,16,0,0,1,2.45-.17,20.91,20.91,0,0,1,10.13,2.65c3.13,1.8,5.56,4.52,6.12,8.21a12.1,12.1,0,0,1,.12,1.62c0,1.64,0,3.24-.09,4.69-.16,6-.25,9.44,3.12,11.43l.8.46h0c5.27,3,18.22,10.52,13.6,22.59-4.76,12.41-5.85,13.78-5.85,13.78a.5.5,0,0,1-.7.09.5.5,0,0,1-.09-.69s1-1.25,5.71-13.53c4.32-11.29-8.11-18.47-13.17-21.38h0l-.8-.47c-3.87-2.28-3.77-6-3.6-12.3,0-1.39.07-2.9.07-4.67a10,10,0,0,0-.1-1.47,10.64,10.64,0,0,0-5.63-7.51,20,20,0,0,0-9.64-2.51,15.42,15.42,0,0,0-2.31.16,16.13,16.13,0,0,1-10.92-1.94A14.2,14.2,0,0,1,99,43.23a8.56,8.56,0,0,0-.58-1.52,8.34,8.34,0,0,0-6.34-4.44,19.48,19.48,0,0,0-8.47.53A18.7,18.7,0,0,0,80.54,39Z" fill="#774e31" fill-rule="evenodd"/></svg>