<svg xmlns="http://www.w3.org/2000/svg" width="104" height="105" viewBox="0 0 104 105">
  <g id="Group_2071" data-name="Group 2071" transform="translate(-697 -1293)">
    <ellipse id="Ellipse_3" data-name="Ellipse 3" cx="52" cy="52.5" rx="52" ry="52.5" transform="translate(697 1293)" fill="#e9423c"/>
    <path id="iconmonstr-time-19" d="M41.743,35l6.916-10.563-1.191-1.065L37.831,31.5A5.247,5.247,0,1,0,41.743,35ZM31.484,7.068V0H41.979V7.068A29.327,29.327,0,0,0,31.484,7.068Zm23.222,5.415L58.4,8.792l3.71,3.71-3.466,3.466A31.621,31.621,0,0,0,54.706,12.483ZM5.247,23.613H26.237v5.247H5.247ZM0,34.108H20.989v5.247H0ZM7.871,44.6H26.237V49.85H7.871Zm55.1-7.871A26.181,26.181,0,0,1,18.075,55.1H26.68a20.647,20.647,0,0,0,10.051,2.624,20.989,20.989,0,1,0,0-41.979A20.647,20.647,0,0,0,26.68,18.366H18.075A26.181,26.181,0,0,1,62.968,36.732Z" transform="translate(717.064 1314.299)" fill="#fff"/>
  </g>
</svg>
