<svg xmlns="http://www.w3.org/2000/svg" width="104" height="105" viewBox="0 0 104 105">
  <g id="Group_2073" data-name="Group 2073" transform="translate(-1279 -4223)">
    <ellipse id="Ellipse_3" data-name="Ellipse 3" cx="52" cy="52.5" rx="52" ry="52.5" transform="translate(1279 4223)" fill="#f7be00"/>
    <path id="Icon_awesome-laptop-code" data-name="Icon awesome-laptop-code" d="M20.634,21.17a1.3,1.3,0,0,0,1.831,0l.915-.915a1.3,1.3,0,0,0,0-1.831l-2.89-2.889,2.889-2.89a1.3,1.3,0,0,0,0-1.831L22.464,9.9a1.3,1.3,0,0,0-1.831,0l-4.72,4.72a1.3,1.3,0,0,0,0,1.831l4.721,4.72Zm7.768-.914.915.915a1.3,1.3,0,0,0,1.831,0l4.72-4.72a1.3,1.3,0,0,0,0-1.831L31.148,9.9a1.3,1.3,0,0,0-1.831,0l-.915.915a1.3,1.3,0,0,0,0,1.831l2.889,2.889L28.4,18.425a1.3,1.3,0,0,0,0,1.831Zm22.085,13.4H30.87a2.551,2.551,0,0,1-2.649,2.589H23.3a2.748,2.748,0,0,1-2.651-2.589H1.295A1.3,1.3,0,0,0,0,34.953v1.295a5.193,5.193,0,0,0,5.178,5.178H46.6a5.193,5.193,0,0,0,5.178-5.178V34.953A1.3,1.3,0,0,0,50.487,33.658ZM46.6,3.884A3.9,3.9,0,0,0,42.72,0H9.062A3.9,3.9,0,0,0,5.178,3.884V31.069H46.6ZM41.425,25.891H10.356V5.178H41.425Z" transform="translate(1305.109 4254.788)" fill="#fff"/>
  </g>
</svg>
