<svg id="g3017" xmlns="http://www.w3.org/2000/svg" width="106.085" height="106.085" viewBox="0 0 106.085 106.085">
  <g id="g3061" transform="translate(0 0)">
    <g id="g3021" transform="translate(0 0)">
      <path id="path3023" d="M6.285,3.143A53.041,53.041,0,0,0-46.757-49.9q-1.2,0-2.384.056l-10.85,29.82h9.45c5.622,0,8.651,4.329,6.727,9.615L-57.2,26.371l-11.237,0,14.361-39.421h-8.449L-76.884,26.369H-88.125l16.887-46.392h0l10.158-27.918A53.064,53.064,0,0,0-99.8,3.143a53.062,53.062,0,0,0,40.728,51.6l9.843-27.051h.008l17.365-47.718h20.7c5.628,0,8.655,4.329,6.731,9.615L-16.187,21.9a7.313,7.313,0,0,1-6.388,4.474H-37.493l-10.84,29.792c.522.014,1.049.024,1.575.024A53.042,53.042,0,0,0,6.285,3.143" transform="translate(99.8 49.9)" fill="#0096d6"/>
    </g>
    <g id="g3025" transform="translate(64.865 36.819)">
      <path id="path3027" d="M1.2,0H-7.244L-19.072,32.452h8.445L1.2,0" transform="translate(19.072)" fill="#0096d6"/>
    </g>
  </g>
</svg>
