<svg id="Logo_Putih_warna" data-name="Logo Putih_warna" xmlns="http://www.w3.org/2000/svg" width="105.813" height="105.813" viewBox="0 0 105.813 105.813">
  <path id="Path_187" data-name="Path 187" d="M52.907,105.813a52.907,52.907,0,1,1,52.907-52.907A52.967,52.967,0,0,1,52.907,105.813Zm0-97.182A44.275,44.275,0,1,0,97.182,52.907,44.326,44.326,0,0,0,52.907,8.631Z" fill="#174273"/>
  <path id="Path_188" data-name="Path 188" d="M278.85,179.671a.658.658,0,0,1,.019.635l-2.956,8.912a1.049,1.049,0,0,1-.431.635,1.206,1.206,0,0,1-.728.262H259.331a.468.468,0,0,0-.529.374l-13.259,40.447a1.587,1.587,0,0,1-.468.635,1.058,1.058,0,0,1-.691.262H234.049a.6.6,0,0,1-.545-.262.654.654,0,0,1-.019-.635l13.263-40.443c.051-.249-.024-.374-.223-.374H231.268a.6.6,0,0,1-.545-.262.654.654,0,0,1-.019-.635l2.882-8.912a1.587,1.587,0,0,1,.468-.635,1.058,1.058,0,0,1,.691-.262h43.56A.6.6,0,0,1,278.85,179.671Z" transform="translate(-206.228 -160.427)" fill="#174273"/>
  <path id="Path_189" data-name="Path 189" d="M370.053,377.332a.654.654,0,0,1-.019-.635l16.631-50.63a1.046,1.046,0,0,1,.431-.635,1.206,1.206,0,0,1,.728-.262h10.264q.823,0,.635.9L385.37,366.584c-.052.251.022.375.222.375H409.4a.6.6,0,0,1,.545.262.657.657,0,0,1,.019.635l-2.868,8.839a1.481,1.481,0,0,1-.5.635,3.478,3.478,0,0,1-1.318.261H370.6A.6.6,0,0,1,370.053,377.332Z" transform="translate(-330.815 -290.763)" fill="#174273"/>
</svg>
