<svg id="WC_logo_warna" data-name="WC_logo warna" xmlns="http://www.w3.org/2000/svg" width="106.07" height="106.085" viewBox="0 0 106.07 106.085">
  <path id="Path_190" data-name="Path 190" d="M94.536,147.248a53.013,53.013,0,1,1,20.639-4.167,53.043,53.043,0,0,1-20.639,4.167Zm0-103.626a50.6,50.6,0,1,0,50.6,50.6A50.654,50.654,0,0,0,94.536,43.622Z" transform="translate(-41.522 -41.163)" fill="#414042"/>
  <path id="Path_191" data-name="Path 191" d="M765.929,499.357l-.705,1.78-1.774-3.026a33.647,33.647,0,0,0,3.6-15.252c0-.9-.036-1.8-.105-2.688l2.775.463a21.842,21.842,0,0,1,.109,2.221A36.4,36.4,0,0,1,765.929,499.357Z" transform="translate(-679.972 -429.407)" fill="#414042"/>
  <path id="Path_192" data-name="Path 192" d="M185.775,220.076,183,219.911a36.778,36.778,0,0,1,61.791-24.672l-1.893,2.029a34,34,0,0,0-57.123,22.808Z" transform="translate(-166.641 -168.686)" fill="#414042"/>
  <path id="Path_193" data-name="Path 193" d="M306.855,702.2l-1.147.809a36.771,36.771,0,0,1-47.326-7.182c-.058-.066-.116-.133-.172-.2l2.114-1.8q.578.684,1.2,1.336,1.1,1.156,2.294,2.211.809.706,1.651,1.36l.207.158a33.671,33.671,0,0,0,20.562,6.919,33,33,0,0,0,15.668-3.793q1.041-.553,2.062-1.19Z" transform="translate(-233.154 -618.361)" fill="#414042"/>
  <path id="Path_194" data-name="Path 194" d="M755.349,231.3l-7.7-30.053a3.882,3.882,0,0,0-7.516,1.928l.362,1.411h0l.416,1.627,6.144,23.973.261,1.021.155.6.363,1.415a3.883,3.883,0,1,0,7.522-1.928Zm-3.212,3.1a2.211,2.211,0,0,1-2.69-1.592l-7.7-30.053a2.211,2.211,0,0,1,1.592-2.69,2.264,2.264,0,0,1,.553-.069,2.21,2.21,0,0,1,2.137,1.662l7.7,30.053A2.212,2.212,0,0,1,752.137,234.4Z" transform="translate(-659.268 -180.262)" fill="#414042"/>
  <path id="Path_195" data-name="Path 195" d="M764.66,246.244a2.211,2.211,0,0,1-2.69-1.592l-7.7-30.053a2.211,2.211,0,0,1,1.592-2.69,2.265,2.265,0,0,1,.553-.069,2.21,2.21,0,0,1,2.137,1.662l7.7,30.053A2.212,2.212,0,0,1,764.66,246.244Z" transform="translate(-671.79 -192.104)" fill="#6d6e71"/>
  <path id="Path_196" data-name="Path 196" d="M698.851,289.543a10.1,10.1,0,0,1-1.479.109,11.571,11.571,0,0,1-9.341-5.1,13.7,13.7,0,0,1-2.408-9.4,11.361,11.361,0,0,1,7.084-9.58Z" transform="translate(-611.071 -239.621)" fill="#6d6e71"/>
  <path id="Path_197" data-name="Path 197" d="M687.257,276.673c-.268.062-.536.116-.809.16a11.3,11.3,0,0,1-1.156.132q-.369.023-.738.023a13.106,13.106,0,0,1-10.052-4.955q-.338-.412-.651-.855c-.116-.163-.231-.328-.337-.5a15.422,15.422,0,0,1-2.428-9.455c.015-.2.035-.4.058-.6.04-.357.094-.709.158-1.057a13.75,13.75,0,0,1,2.775-6.1,12.576,12.576,0,0,1,1.972-1.959,11.9,11.9,0,0,1,3.424-1.9q.385-.138.782-.246l.446,1.612c-.275.076-.547.164-.809.262a11.359,11.359,0,0,0-7.084,9.58,13.7,13.7,0,0,0,2.407,9.4,11.568,11.568,0,0,0,9.341,5.1,10.107,10.107,0,0,0,1.48-.109q.418-.062.837-.161l.315,1.33Z" transform="translate(-598.254 -225.286)" fill="#414042"/>
  <path id="Path_198" data-name="Path 198" d="M638.406,348.942a2.414,2.414,0,0,1-1.625,1.4l-2.353.6a2.42,2.42,0,0,1-2.856-1.473,2.387,2.387,0,0,1-.089-.275l-.347-1.34-1.388-5.421-.347-1.341a2.422,2.422,0,0,1,1.743-2.944l2.354-.6a2.43,2.43,0,0,1,.906-.06,2.386,2.386,0,0,1,1.188.5l-1.033,1.315a.754.754,0,0,0-.645-.132l-2.354.6a.747.747,0,0,0-.542.89l2.081,8.121a.749.749,0,0,0,.91.544l2.353-.6a.717.717,0,0,0,.251-.116.739.739,0,0,0,.251-.313Z" transform="translate(-561.357 -303.203)" fill="#414042"/>
  <path id="Path_199" data-name="Path 199" d="M649.44,361.4a.716.716,0,0,1-.251.116l-2.353.606a.749.749,0,0,1-.91-.544l-2.081-8.121a.747.747,0,0,1,.542-.89l2.35-.6a.713.713,0,0,1,.274-.018,15.423,15.423,0,0,0,2.428,9.455Z" transform="translate(-574.18 -316.005)" fill="#6d6e71"/>
  <path id="Path_200" data-name="Path 200" d="M581.867,371.5l-1.6.411-7.127,1.827-1.031.265a15.727,15.727,0,0,0-.1-1.7l.971-.249,6.857-1.759h0l-1.388-5.421h0l-6.244,1.6-.733.188c-.034-.563-.079-1.124-.156-1.686l.539-.138h0l6.191-1.586,1.6-.411.066.259,2.081,8.121Z" transform="translate(-510.05 -325.644)" fill="#414042"/>
  <path id="Path_201" data-name="Path 201" d="M362.185,420.39c-.116.483-.065.972-.158,1.467-.02.108-.047.213-.077.319l-1.23.316-3.494.895-1.725.443a10.864,10.864,0,0,0-.719-1.541l1.827-.468,4.239-1.086Z" transform="translate(-318.557 -376.539)" fill="#414042"/>
  <path id="Path_202" data-name="Path 202" d="M316.143,446.105l-1.31.338a4.191,4.191,0,0,0-1.013-1.466l1.193-.306a2.2,2.2,0,0,1,.809.809A3.007,3.007,0,0,1,316.143,446.105Z" transform="translate(-282.334 -398.012)" fill="#074c7f"/>
  <path id="Path_203" data-name="Path 203" d="M285.042,454.042l-1.931.495a5.016,5.016,0,0,0-1.041-1.458l1.2-.309a2.855,2.855,0,0,1,1.711,1.14Q285.014,453.976,285.042,454.042Z" transform="translate(-254.255 -405.175)" fill="#074c7f"/>
  <path id="Path_204" data-name="Path 204" d="M251.249,464.771l-1.346.347-1.238.318a.9.9,0,0,0,.082-.378.613.613,0,0,0,0-.081.717.717,0,0,0-.01-.072.191.191,0,0,0-.007-.037.055.055,0,0,0-.009-.037c-.009-.013-.007-.026-.01-.038s-.008-.024-.012-.037a1.369,1.369,0,0,0-.051-.127c-.01-.022-.02-.044-.031-.065s-.027-.047-.042-.072-.031-.051-.047-.075-.031-.045-.049-.068h0c-.017-.023-.036-.047-.055-.071s-.042-.051-.064-.075a.643.643,0,0,0-.046-.051,3.41,3.41,0,0,0-.264-.256,3.822,3.822,0,0,1,2.742.384A2.4,2.4,0,0,1,251.249,464.771Z" transform="translate(-224.169 -414.952)" fill="#074c7f"/>
  <path id="Path_205" data-name="Path 205" d="M161.734,468.167l-1.5.383-16.691,4.278-1.795.463-9.66,2.476c-.083.021-.168.04-.251.057a4.507,4.507,0,0,1-.867.086,4.407,4.407,0,0,1-1.239-.178,4.471,4.471,0,0,1,.137-8.624l3.21-.822,2.845-.73.186-.047,2.544-.652,1-.257.376-.087.524-.121c.339.1.881.22.992.437a.16.16,0,0,1,.021.086c0,.1-.149.214-.361.341-.554.333-1.562.728-1.672.959a.8.8,0,0,0-.317.223l-.167.043-1.58.4-3.1.794-4.089,1.048a2.8,2.8,0,0,0,1.395,5.42l1.272-.325,8.782-2.25,1.981-.508,15.18-3.891,1.361-.347A5.017,5.017,0,0,0,161.734,468.167Z" transform="translate(-116.687 -415.452)" fill="#414042"/>
  <path id="Path_206" data-name="Path 206" d="M218.132,318.474h0a19.631,19.631,0,0,0-1.314-3.868,21.084,21.084,0,0,0-5.077-6.872,3.879,3.879,0,0,1-.886-1.6,13.724,13.724,0,0,0-4.865-6.369,14.1,14.1,0,0,0-4.212-1.722c-2.006-.652-4.03-1.22-6.086-1.734-.031-.18-.061-.362-.089-.543a14.3,14.3,0,0,1-.163-1.684c-.006-.217-.007-.434,0-.649h.017c-.368-1.555-.435-3.143-.753-4.748-.012-.061-.023-.123-.036-.184-.109-.552-.231-1.094-.347-1.635h0a16.682,16.682,0,0,1-.517-4.132.821.821,0,0,1,.164-.463.9.9,0,0,0,.155-.782v-.006a12.521,12.521,0,0,0-2.641-5.584,3.834,3.834,0,0,0-2.846-1.193,42.609,42.609,0,0,0-8.994.636,6.807,6.807,0,0,0-3.394,1.22,6.914,6.914,0,0,0-1.856,3.093,6.292,6.292,0,0,0-2.993,1.5,5.865,5.865,0,0,0-1.437,5.066.906.906,0,0,0,.953.886c1.237-.067,2.457-.284,3.694-.4a38.234,38.234,0,0,1,.19,5.156c-.024.656-.068,1.24-.124,1.758a20.837,20.837,0,0,1-.6,3.217,7.82,7.82,0,0,1-.334,1.12v.016a4.63,4.63,0,0,0,.975,1.413c.445.5.957,1,1.352,1.378s.65.6.65.6l-.217.267a17.952,17.952,0,0,0-.82,1.734s-4.875-1.156-7.857,1.437c-.764.665-.986,1.672-2.072,1.85a14.51,14.51,0,0,1-2.475-.334,26.668,26.668,0,0,0-3.076.2.7.7,0,0,1-.786-.737v-.016a5.8,5.8,0,0,1-.038-.738v-.282a10.058,10.058,0,0,1,.116-1.287c.013-.068.025-.133.038-.2l-1.981.508c-.017.651,0,1.272.027,1.718.021.394.044.645.044.645h.017c0,.417.016.836.016,1.272v.067a11.676,11.676,0,0,0-.134,2.406c.184,1.488-.735,2.809-1.571,3.945a7.632,7.632,0,0,1-5.517,2.927,7.823,7.823,0,0,0,4.909.03,1.606,1.606,0,0,1,.74-.183,2.5,2.5,0,0,1,1.586.511,4.875,4.875,0,0,0,2.395.075,6.851,6.851,0,0,0,3.627-2.056,20.479,20.479,0,0,0,0,2.575,13.832,13.832,0,0,0,.284,1.637s-6.8,3.781-13.542.569c3.727,3.341,9.366,2.183,9.372,2.182a38.289,38.289,0,0,0,4.47-1.647c-.05.133-.116.417-.167.552a17.041,17.041,0,0,1-4,1.656l-.182.054-.1.03-.037.01-.04.012c-.012,0-1.525.347-1.718.371l-.061.009h-.008a15.362,15.362,0,0,1-8.578-.974c-1.041-.836-1.99-1.773-2.976-2.642a16.123,16.123,0,0,1,.034-5.65,29.527,29.527,0,0,1,.819-4.916,8.593,8.593,0,0,1,.41-.938c.3-.6.694-1.308,1.1-2l-1.272.325a2.789,2.789,0,0,1-1.5-.029c-.163.5-.313,1.056-.445,1.612-.318,1.325-.54,2.639-.615,3.1-.3,1.33-.82,7-.312,9.385a36.661,36.661,0,0,0,2.993,2.825,6.508,6.508,0,0,0,3.042,1.437,17.948,17.948,0,0,0,7.072.446,20.632,20.632,0,0,0,3.138-.663,21.575,21.575,0,0,0,2.83-1.053,19.849,19.849,0,0,0-.535,3.264,21.247,21.247,0,0,0-.016,3.221c.635-.067,1.287-.15,1.922-.231-.032-.488-.05-.978-.047-1.47a14.585,14.585,0,0,1,.482-3.78,10.857,10.857,0,0,1,4.764-2.157c-1.253-.083-2.991.267-3.861-.886a17.853,17.853,0,0,1,2.475-15.8c.947-.982,3.426-1.388,4.563-1.287a7.352,7.352,0,0,0,1.6,3.979,4.593,4.593,0,0,0,3.16,1.388,5.854,5.854,0,0,1-2.491-2.006,7.271,7.271,0,0,1-1.087-3.143c.267.05.535.116.8.184a4.387,4.387,0,0,0,1.722,3.461,4.476,4.476,0,0,0,4.3.769,20.214,20.214,0,0,0,5.926-3.556,69.319,69.319,0,0,1,10.214-6.553c.2.067.6.168.8.231a90.7,90.7,0,0,0-12.271,8.125c4.5-2.589,8.886-5.4,13.545-7.738,1.872.619,3.912.937,5.533,2.14a13.018,13.018,0,0,1,4.313,6.452c.217.753.953,1.137,1.472,1.656a10.878,10.878,0,0,0-7.707,3.61,17.317,17.317,0,0,0-2.157,3.093,14.206,14.206,0,0,1-3.544,2.073,7.785,7.785,0,0,1,.368-5.751,14.809,14.809,0,0,1,5.567-5.782,9.3,9.3,0,0,0-6.3,3.594,11.258,11.258,0,0,0-2.291,7.285c-1.338-.017-2.056-1.253-2.607-2.291a8.634,8.634,0,0,1,.368-7.556c1.771-3.293,4.847-5.583,7.94-7.523a30.8,30.8,0,0,0-6.236,3.463,12.064,12.064,0,0,0-3.979,4.481,10.105,10.105,0,0,0,.737,9.094,26.451,26.451,0,0,0-1.706-2.358c-.672-.785-1.6-1.319-1.99-2.291a17.67,17.67,0,0,1-.925-3.576c-.568-1.255-2.257-1.237-3.376-.853-2.24.97-3.21,3.762-2.66,6.035-2.357.463-4.2,2.107-6.252,3.238a3.181,3.181,0,0,0-1.523,2.052,4.289,4.289,0,0,0,.664,2.869,6.534,6.534,0,0,0,1.3,1.327s.694.591.694.9a2.327,2.327,0,0,0,.738,1.536,2.91,2.91,0,0,0,1.3.546,2.012,2.012,0,0,0,.772,1.735,2.106,2.106,0,0,0,1.713.256,1.071,1.071,0,0,0,.615,1.63,5.609,5.609,0,0,0,2.891.058,25.724,25.724,0,0,1,4.562-.97c4.459-.347,8.869,1.362,13.3,1.724.054.006.108.01.162.014,1.5.116,3.131.187,4.791.165a26.869,26.869,0,0,0,8.633-1.336,1.483,1.483,0,0,0,.686-.635c.819-1.253,1.655-2.508,2.491-3.744a5.091,5.091,0,0,0,.535-2.692A17.807,17.807,0,0,0,218.132,318.474Zm-54.4-4.588c-1.588,1.888-4.6,3.06-6.77,1.437a10.328,10.328,0,0,0,2.291-4.43c.032-.925-.1-1.822.016-2.742a6.332,6.332,0,0,1,6.236.2,13.551,13.551,0,0,0-1.773,5.534Zm25.156-37.217a2.349,2.349,0,0,1,1.771,1.288,14.657,14.657,0,0,1,1.688,4.379c-1.821.217-3.627.419-5.45.6-.668-2.324-1.638-4.932-3.945-6.1A34.332,34.332,0,0,1,188.884,276.668Zm-6.988,3.544a9.143,9.143,0,0,1,3.962,2.86l-4.012.451a8.231,8.231,0,0,0-4.179-3.561,8.506,8.506,0,0,1,4.234.254Zm6.954,21.632c-1.956,1.354-3.779,2.925-5.782,4.2a6.779,6.779,0,0,1-2.909,1.156,2.563,2.563,0,0,1-2.742-2.558,5.9,5.9,0,0,1,1-2.692c.468.134.925.251,1.388.368v.853a5.068,5.068,0,0,1,1.619,2.089c-.017-.463.15-1.02-.217-1.388a1.622,1.622,0,0,1-.585-1.438c2.473.15,5.183-.016,7.205-1.588a5.678,5.678,0,0,0,2.073-3.878c-1.17,2.608-4.03,3.861-6.754,4.012-2.708.267-5.918-.369-7.473-2.842a27.146,27.146,0,0,0,.7-8.527,13.492,13.492,0,0,0,2.507-.969c.168-.569.017-1.571-.686-1.734a16.633,16.633,0,0,0-2.022.6c-.05-.753-.368-1.555.034-2.257a3.638,3.638,0,0,1,2.959-1.973c.886.535.937,1.989,1.989,2.257,1.689-.1,3.36-.4,5.032-.535a6.659,6.659,0,0,0,.569,2.34,8.378,8.378,0,0,0,1.888,2.057,4.555,4.555,0,0,1,2.257-2.441,1.544,1.544,0,0,1,1.939,1,5.469,5.469,0,0,1-.083,3.143,5,5,0,0,1-2.174,1.99c-.534.334-1.07-.051-1.521-.318.251.284.435.686.819.8a6.427,6.427,0,0,0,1.957-.034,16.141,16.141,0,0,0,1.688,1.3,30.424,30.424,0,0,0,.518,3.025c.217.051.619.168.82.231a69.337,69.337,0,0,0-6.013,3.744Zm3.238,27.133c-.2-.083-.4-.15-.619-.217.3-.266,2.055-2.943,1.839-3.962a10.123,10.123,0,0,1-2.157,3.762c-.318-.152-.619-.3-.937-.452.184-.231.368-.463.569-.686a3.176,3.176,0,0,0,.251-3.26c-.051.836.083,1.822-.585,2.475-.463.7-1.388.585-2.056.937-1.539.819-3.394.534-4.949,1.287-.686.285-1.4.819-2.173.468a5.605,5.605,0,0,0,1.637-1.221c.435-.034.853-.05,1.288-.05a1.435,1.435,0,0,1-.419-1.388c-1.538.752-3.527,1.872-5.082.534a9.2,9.2,0,0,1,4.548-1.137c-.519-.267-1.087-.552-1.188-1.186-.2.368-.435.785-.9.8-1.437.167-3.276.384-4.229-.97,1.186-.435,2.19-1.337,3.493-1.388a8.913,8.913,0,0,1,1.773.051c-.753-.468-.619-1.421-.836-2.156-.251.635-.419,1.521-1.188,1.722a12.759,12.759,0,0,1-3.978.251c-1.071-.2-1.288-1.472-1.571-2.34a1.4,1.4,0,0,1,.886-1.689c1.789-.953,3.343-2.491,5.435-2.808a6.888,6.888,0,0,1-2.607,2.19,15.593,15.593,0,0,0-2.056.886c-.4.251-.284.769-.334,1.17.283-.4.417-.986.953-1.1,1.839-.568,3.694-1.052,5.517-1.671,1-1.706-.419-3.629-.067-5.45a2.315,2.315,0,0,1,.089-.382h0a3.112,3.112,0,0,1,.209-.5,1.85,1.85,0,0,1,.767-1.018,1.774,1.774,0,0,1,1.29-.409,16.258,16.258,0,0,0,.986,3.627c-.435.284-.868.568-1.3.886.518-.15,1.02-.334,1.521-.5.1.15.284.452.385.585a5.489,5.489,0,0,0-2.19,1.188,11.166,11.166,0,0,1,2.66-.619,11.532,11.532,0,0,1,3.058,3.962c1.438.284,2.909.184,4.347.368,1.984,6.674-1.721,9.214-2.064,9.414Zm24.39-4.5a31.5,31.5,0,0,1-2.724,4.012,23.723,23.723,0,0,1-17.972-.268c.184-.384.384-.769.568-1.156a39.222,39.222,0,0,0,8.493.819c1.771-.067,3.56-.267,5.333-.462-4.51-.133-9.145.084-13.492-1.287a11.7,11.7,0,0,0-.05-5.367,14.058,14.058,0,0,0,4.564-2.089,8.289,8.289,0,0,1,6.671-1.5,8.189,8.189,0,0,1,2.942,1.437,5.825,5.825,0,0,0-2.675-3.21,4.688,4.688,0,0,1,1.906-1.253,3.693,3.693,0,0,0-2.993.937,12.4,12.4,0,0,0-2.942.167,9.712,9.712,0,0,1,4.412-3.21,9.1,9.1,0,0,1,4.23-.3,16.665,16.665,0,0,1,3.738,12.739Z" transform="translate(-132.516 -247.663)" fill="#414042"/>
  <path id="Path_207" data-name="Path 207" d="M487.145,297.066c-1.821.217-3.627.419-5.45.6-.668-2.324-1.639-4.932-3.945-6.1a34.309,34.309,0,0,1,5.926-.167,2.349,2.349,0,0,1,1.771,1.288A14.753,14.753,0,0,1,487.145,297.066Z" transform="translate(-427.308 -262.395)" fill="#e6e7e8"/>
  <path id="Path_208" data-name="Path 208" d="M440.221,322.469l-4.012.451a8.231,8.231,0,0,0-4.179-3.561,8.5,8.5,0,0,1,4.23.251A9.143,9.143,0,0,1,440.221,322.469Z" transform="translate(-386.875 -287.057)" fill="#e6e7e8"/>
  <path id="Path_209" data-name="Path 209" d="M586.658,385.841,579.8,387.6c-.006-.217-.007-.434,0-.649h.017c-.368-1.555-.435-3.143-.753-4.748-.011-.061-.023-.123-.036-.184l6.244-1.6Z" transform="translate(-516.877 -341.191)" fill="#6d6e71"/>
  <path id="Path_210" data-name="Path 210" d="M433.193,363.778c-.217-1-.4-2.005-.518-3.025a16.141,16.141,0,0,1-1.688-1.3,6.5,6.5,0,0,1-1.956.034c-.384-.116-.568-.518-.819-.8.451.267.986.652,1.521.318a5,5,0,0,0,2.174-1.99,5.44,5.44,0,0,0,.083-3.143,1.544,1.544,0,0,0-1.939-1,4.555,4.555,0,0,0-2.257,2.441,8.467,8.467,0,0,1-1.888-2.057,6.665,6.665,0,0,1-.569-2.34c-1.672.134-3.343.435-5.032.535-1.052-.268-1.1-1.722-1.989-2.257a3.629,3.629,0,0,0-2.959,1.973c-.4.7-.083,1.5-.034,2.257a16.637,16.637,0,0,1,2.022-.6c.7.168.853,1.17.686,1.734a13.393,13.393,0,0,1-2.507.969,27.147,27.147,0,0,1-.7,8.527c1.555,2.473,4.765,3.109,7.473,2.842,2.724-.151,5.584-1.4,6.754-4.012a5.679,5.679,0,0,1-2.073,3.878c-2.022,1.571-4.732,1.734-7.205,1.588a1.622,1.622,0,0,0,.585,1.438c.368.368.2.925.217,1.388a5.134,5.134,0,0,0-1.619-2.089v-.853c-.463-.116-.919-.231-1.388-.368a5.879,5.879,0,0,0-1,2.692,2.563,2.563,0,0,0,2.742,2.558,6.72,6.72,0,0,0,2.909-1.156c2.005-1.272,3.827-2.842,5.782-4.2a69.371,69.371,0,0,1,6.013-3.744C433.811,363.946,433.41,363.829,433.193,363.778Zm-2.483-10.113c.721.37.636,1.31.733,1.99-.266-.638-.463-1.693-1.4-1.344a3.232,3.232,0,0,1,.836,1.456,6.412,6.412,0,0,0-1.041-.977l-.347.694c.454.3,1.024.694.925,1.322-.008.554-.653.706-1.007.987a2.966,2.966,0,0,0,.434-1.231c-.142-.431-.616-.533-.972-.713C429.064,354.93,429.526,353.526,430.71,353.665Zm-13.9,4.33c-.472,0-.853-.545-.853-1.218s.382-1.218.853-1.218.853.545.853,1.218S417.269,358,416.807,358Zm1.592-4.258a8.32,8.32,0,0,1,.82,2.564,14.261,14.261,0,0,1-.367,4.034,5.691,5.691,0,0,0,3.3-.4c-.757,1.669-2.8,1.484-4.261,1.041a23.3,23.3,0,0,0,.506-7.235Zm3.075,2.582c0-.762.432-1.381.967-1.381s.967.619.967,1.381-.432,1.381-.967,1.381-.971-.619-.971-1.381Zm-.2,7.285c-1.033.231-2.391.312-3.045-.7a5.909,5.909,0,0,0,3.617-.116,6.4,6.4,0,0,0,2.124-1.517,3.4,3.4,0,0,1-2.7,2.338Zm3.323-2.558a.6.6,0,0,0-.586-.308c-.167.016-.332.035-.5.053,1.131-.819,1.312.266,1.317.665-.084-.131-.16-.264-.238-.406Zm.177-7.3a24.437,24.437,0,0,1-4.284.1c-.127-.657-.565-1.571.095-2.061a33.45,33.45,0,0,1,4.312.254c.043.563.285,1.237-.127,1.714Z" transform="translate(-371.655 -313.572)" fill="#c2b59b"/>
  <path id="Path_211" data-name="Path 211" d="M261.443,558.946a13.55,13.55,0,0,0-1.773,5.534c-1.588,1.888-4.6,3.06-6.77,1.437a10.327,10.327,0,0,0,2.291-4.43c.032-.925-.1-1.822.016-2.742A6.332,6.332,0,0,1,261.443,558.946Z" transform="translate(-228.458 -498.259)" fill="#c2b59b"/>
  <path id="Path_212" data-name="Path 212" d="M605.718,594.414a9.1,9.1,0,0,0-4.23.3,9.737,9.737,0,0,0-4.413,3.21,12.406,12.406,0,0,1,2.942-.166,3.693,3.693,0,0,1,2.993-.937,4.662,4.662,0,0,0-1.906,1.253,5.826,5.826,0,0,1,2.675,3.21,8.191,8.191,0,0,0-2.942-1.437,8.293,8.293,0,0,0-6.671,1.5,14.209,14.209,0,0,1-4.564,2.089,11.639,11.639,0,0,1,.05,5.366c4.347,1.371,8.978,1.156,13.492,1.287-1.773.2-3.561.4-5.333.463a39.226,39.226,0,0,1-8.493-.819c-.184.384-.384.769-.568,1.156a23.707,23.707,0,0,0,17.971.268,31.036,31.036,0,0,0,2.724-4.012A16.7,16.7,0,0,0,605.718,594.414Zm-3.055,11.732c-2.939,1.333-6.374.839-9.329-.2a44.46,44.46,0,0,0,8.245-.509,3.22,3.22,0,0,0,2.659-2.538A2.793,2.793,0,0,1,602.663,606.146Z" transform="translate(-525.473 -530.332)" fill="#c2b59b"/>
  <path id="Path_213" data-name="Path 213" d="M424.729,590.385c-1.437-.184-2.908-.083-4.347-.368a11.5,11.5,0,0,0-3.059-3.962,11.176,11.176,0,0,0-2.66.619,5.49,5.49,0,0,1,2.19-1.187c-.1-.133-.284-.435-.385-.585-.5.168-1,.347-1.521.5.435-.318.868-.6,1.3-.886a16.292,16.292,0,0,1-.986-3.627,1.773,1.773,0,0,0-1.29.409,1.846,1.846,0,0,0-.767,1.018,3.107,3.107,0,0,0-.209.5h0a2.311,2.311,0,0,0-.089.382c-.347,1.821,1.07,3.744.067,5.45-1.822.619-3.678,1.1-5.517,1.671-.535.116-.669.7-.953,1.1.05-.4-.067-.925.334-1.17a16.074,16.074,0,0,1,2.056-.886,6.906,6.906,0,0,0,2.607-2.19c-2.089.317-3.644,1.85-5.435,2.808a1.4,1.4,0,0,0-.886,1.689c.283.868.5,2.139,1.571,2.34a12.754,12.754,0,0,0,3.978-.251c.769-.2.937-1.087,1.188-1.722.217.735.083,1.688.836,2.157a9.084,9.084,0,0,0-1.773-.051c-1.3.051-2.307.953-3.493,1.388.953,1.354,2.791,1.137,4.229.97.468-.017.7-.435.9-.8.1.635.668.925,1.188,1.186a9.205,9.205,0,0,0-4.548,1.137c1.555,1.338,3.544.217,5.082-.534a1.435,1.435,0,0,0,.419,1.388c-.435,0-.853.016-1.288.05a5.667,5.667,0,0,1-1.637,1.221c.769.347,1.487-.184,2.173-.468,1.555-.753,3.41-.462,4.949-1.287.668-.347,1.588-.231,2.056-.937.668-.652.534-1.638.585-2.474a3.189,3.189,0,0,1-.251,3.26c-.2.217-.385.452-.569.686.318.15.619.3.937.452a10.172,10.172,0,0,0,2.156-3.762c.216,1.019-1.539,3.7-1.839,3.962.217.067.417.134.619.217C423,599.6,426.705,597.059,424.729,590.385Zm-4.656,7.111a13.568,13.568,0,0,1-2.611.656c-.429.05-1.063-.06-1.1-.593a26.012,26.012,0,0,0-.925-6.153c-.367-1.264,1.049-2.007,2.081-2.159a3.046,3.046,0,0,1,1.192-.065c.463.2.606.735.783,1.156a23.109,23.109,0,0,1,.976,6.324C420.466,596.964,420.409,597.4,420.072,597.5Z" transform="translate(-363.074 -518.48)" fill="#e6e7e8"/>
  <path id="Path_214" data-name="Path 214" d="M368.65,494.317a10.877,10.877,0,0,0-7.707,3.61,17.32,17.32,0,0,0-2.157,3.093,14.209,14.209,0,0,1-3.544,2.073,7.786,7.786,0,0,1,.368-5.752,14.809,14.809,0,0,1,5.566-5.782,9.3,9.3,0,0,0-6.3,3.594,11.258,11.258,0,0,0-2.291,7.285c-1.338-.017-2.056-1.253-2.607-2.291a8.634,8.634,0,0,1,.368-7.557c1.771-3.293,4.847-5.583,7.94-7.523a30.8,30.8,0,0,0-6.236,3.463,12.062,12.062,0,0,0-3.979,4.481,10.1,10.1,0,0,0,.737,9.094,26.465,26.465,0,0,0-1.706-2.358c-.672-.785-1.6-1.319-1.99-2.291a17.664,17.664,0,0,1-.925-3.576c-.568-1.255-2.257-1.237-3.376-.853-2.24.97-3.21,3.761-2.66,6.035-2.357.463-4.2,2.107-6.252,3.238a3.181,3.181,0,0,0-1.523,2.052,4.289,4.289,0,0,0,.664,2.869,6.536,6.536,0,0,0,1.3,1.327s.694.591.694.9a2.327,2.327,0,0,0,.738,1.536,2.91,2.91,0,0,0,1.3.546,2.012,2.012,0,0,0,.772,1.735,2.106,2.106,0,0,0,1.713.255,1.071,1.071,0,0,0,.615,1.63,5.608,5.608,0,0,0,2.891.058,25.716,25.716,0,0,1,4.562-.97c4.459-.347,8.869,1.362,13.3,1.724a33,33,0,0,1-15.668,3.793,33.67,33.67,0,0,1-20.562-6.919,14.585,14.585,0,0,1,.482-3.78,10.856,10.856,0,0,1,4.764-2.157c-1.253-.083-2.991.267-3.861-.886a17.853,17.853,0,0,1,2.475-15.8c.947-.982,3.426-1.388,4.563-1.287a7.352,7.352,0,0,0,1.6,3.979,4.593,4.593,0,0,0,3.16,1.388,5.855,5.855,0,0,1-2.491-2.006,7.272,7.272,0,0,1-1.087-3.143c.267.05.535.116.8.184a4.387,4.387,0,0,0,1.722,3.461,4.476,4.476,0,0,0,4.3.769A20.307,20.307,0,0,0,345.042,490a69.322,69.322,0,0,1,10.214-6.553c.2.067.6.168.8.231a90.708,90.708,0,0,0-12.271,8.125c4.5-2.589,8.886-5.4,13.545-7.738,1.872.619,3.912.937,5.533,2.14a13.018,13.018,0,0,1,4.313,6.452C367.4,493.414,368.131,493.8,368.65,494.317Z" transform="translate(-290.177 -432.308)" fill="#074c7f"/>
  <path id="Path_215" data-name="Path 215" d="M245.99,419.237c-.169-1-.161-1.753-.369-2.715-.116-.549-.008-.942-.354-1.422l-.31-.34c-.686-1.02-1.721-1.041-2.306-2.166l-1.17.051a9.068,9.068,0,0,1,2.567,2.3,3.584,3.584,0,0,1,.59,1.575v.017c.479,2.7-1.041,3.661-1.137,3.661a8.418,8.418,0,0,0-.145-3.353,3,3,0,0,0-.324-.629,2.2,2.2,0,0,0-.809-.809,11.1,11.1,0,0,1-1.985-1.147,3.981,3.981,0,0,1-.937-1.354q-.6.326-1.2.6c.925.74,2.07,1.362,2.932,2.206a4.191,4.191,0,0,1,1.019,1.473,3.51,3.51,0,0,1,.164.555,1.975,1.975,0,0,1-1.4,2.641,11.28,11.28,0,0,0-.476-2.76q-.028-.066-.059-.132a2.854,2.854,0,0,0-1.711-1.14,4.344,4.344,0,0,1-.613-.281,5.018,5.018,0,0,1-1.888-1.487c-.067.184-.134.347-.2.534-.168.083-.518.251-.686.318a4.75,4.75,0,0,1,2.185,1.224,5.015,5.015,0,0,1,1.041,1.458,4.339,4.339,0,0,1,.368,2.6c-.148.044-.415.141-.59.2a.29.29,0,0,1-.363-.045.056.056,0,0,1,0,.014c-.5-.7-.694-1.619-1.19-2.313a2.392,2.392,0,0,0-.462-.5,3.8,3.8,0,0,0-2.742-.384l-.524.121-.376.087-1,.257c.383-.759.747-1.529,1.184-2.254.6-1.071,1.906-1.371,2.724-2.224.67-.719,1.735-.585,2.609-.869a10.965,10.965,0,0,0,1.554-1.22c.552.066,1.07.347,1.619.4a10.446,10.446,0,0,1,1.771-.067,9.958,9.958,0,0,1,1.619,1.186,5,5,0,0,1,1.162,1.395,10.865,10.865,0,0,1,.73,1.543c.089.231.175.463.259.694A2.709,2.709,0,0,1,245.99,419.237Z" transform="translate(-209.55 -368.757)" fill="#e6e7e8"/>
  <path id="Path_216" data-name="Path 216" d="M215.8,404.234a3.181,3.181,0,0,1-.9,1.4,6.1,6.1,0,0,1-2.875.718,2.1,2.1,0,0,0-.419.151,2.164,2.164,0,0,0-1.3.556,5.079,5.079,0,0,1-2.925.534c-.535.4-1.972.7-2.518-.116a7.874,7.874,0,0,1-.408-.815,8,8,0,0,0-.85-1.367,2.259,2.259,0,0,0-2.069-.984l-.1.021c.02-.039-.042-.02-.027-.065v-.01a.9.9,0,0,0,.082-.378.628.628,0,0,0,0-.081.708.708,0,0,0-.01-.072l-.007-.037a.056.056,0,0,0-.009-.037c-.009-.013-.007-.025-.01-.038s-.008-.024-.012-.037-.015-.042-.023-.062a.643.643,0,0,0-.028-.065c-.01-.022-.02-.044-.031-.065s-.027-.047-.042-.072-.031-.051-.047-.075-.031-.045-.049-.068h0c-.017-.023-.036-.047-.055-.07s-.042-.051-.064-.075a.613.613,0,0,0-.046-.051,3.4,3.4,0,0,0-.264-.256,3.821,3.821,0,0,1,2.742.384,2.4,2.4,0,0,1,.463.5c.5.694.686,1.61,1.19,2.313a.055.055,0,0,0,0-.014.29.29,0,0,0,.363.045c.175-.057.442-.154.59-.2a4.34,4.34,0,0,0-.368-2.6,5.016,5.016,0,0,0-1.041-1.458,4.749,4.749,0,0,0-2.185-1.224c.168-.067.518-.231.686-.318.067-.184.134-.347.2-.534a5.017,5.017,0,0,0,1.888,1.487,4.337,4.337,0,0,0,.613.281,2.855,2.855,0,0,1,1.711,1.14q.031.066.059.132a11.3,11.3,0,0,1,.476,2.76,1.975,1.975,0,0,0,1.4-2.641,3.507,3.507,0,0,0-.168-.557,4.192,4.192,0,0,0-1.013-1.466c-.863-.844-2.011-1.466-2.932-2.206q.6-.276,1.2-.6a4.026,4.026,0,0,0,.937,1.354,11.1,11.1,0,0,0,1.985,1.147,2.2,2.2,0,0,1,.809.809,3.008,3.008,0,0,1,.324.629,8.413,8.413,0,0,1,.145,3.353c.1,0,1.619-.963,1.137-3.661v-.017a3.584,3.584,0,0,0-.59-1.575,9.02,9.02,0,0,0-2.567-2.3l1.17-.051c.585,1.12,1.619,1.146,2.306,2.166,0,0,.309.34.31.34.347.48.231.873.354,1.422.208.962.2,1.719.369,2.715a2.711,2.711,0,0,0,.757-2.5c-.084-.231-.17-.463-.259-.694a10.869,10.869,0,0,0-.719-1.541,5,5,0,0,0-1.162-1.395,10.158,10.158,0,0,0-1.619-1.186,10.447,10.447,0,0,0-1.771.067c-.553-.051-1.071-.335-1.619-.4a10.966,10.966,0,0,1-1.554,1.22c-.87.284-1.939.15-2.609.87-.819.852-2.123,1.156-2.724,2.224-.437.725-.8,1.5-1.184,2.254a14.952,14.952,0,0,1-1.181,2.028l-3.1.794c.254-.3.506-.6.74-.876.305-.367.578-.705.787-.99h0c.08-.11.15-.212.209-.3a2.255,2.255,0,0,0,.15-.265c.9-1.437,1.37-3.122,2.491-4.43.719-.82,1.822-1.17,2.558-1.956.819-.836,2.022-.9,3.076-1.186.636-.347,1.053-1.053,1.755-1.3a4.008,4.008,0,0,1,1.856.231,22.65,22.65,0,0,0,2.39.1,6.182,6.182,0,0,1,2.609,1.638,6.344,6.344,0,0,1,1.354,1.538c.124.29.253.578.38.859a13.2,13.2,0,0,1,.621,1.567,5.85,5.85,0,0,1,.252,1.3A9.367,9.367,0,0,1,215.8,404.234Z" transform="translate(-176.917 -353.777)" fill="#414042"/>
  <path id="Path_217" data-name="Path 217" d="M466.092,373.462a24.425,24.425,0,0,1-4.284.1c-.127-.657-.565-1.571.095-2.061a33.452,33.452,0,0,1,4.312.254C466.262,372.311,466.5,372.985,466.092,373.462Z" transform="translate(-412.979 -333.286)" fill="#414042"/>
  <path id="Path_218" data-name="Path 218" d="M537.512,388.49a3.231,3.231,0,0,1,.836,1.456,6.415,6.415,0,0,0-1.041-.977l-.347.694c.454.3,1.024.694.925,1.322-.008.554-.653.706-1.007.987a2.964,2.964,0,0,0,.434-1.232c-.142-.431-.616-.533-.972-.713.194-.915.656-2.318,1.84-2.18.722.37.636,1.31.733,1.99C538.646,389.2,538.454,388.141,537.512,388.49Z" transform="translate(-479.123 -347.751)" fill="#414042"/>
  <path id="Path_219" data-name="Path 219" d="M445.571,394.706c-.757,1.669-2.8,1.484-4.261,1.041a23.169,23.169,0,0,0,.511-7.236,8.321,8.321,0,0,1,.82,2.564,14.265,14.265,0,0,1-.367,4.034A5.691,5.691,0,0,0,445.571,394.706Z" transform="translate(-395.082 -348.346)" fill="#414042"/>
  <path id="Path_220" data-name="Path 220" d="M491.285,447.955c-.08-.135-.157-.273-.231-.411a.6.6,0,0,0-.586-.308c-.167.016-.332.035-.5.053C491.1,446.471,491.28,447.556,491.285,447.955Z" transform="translate(-438.115 -400.065)" fill="#414042"/>
  <path id="Path_221" data-name="Path 221" d="M449.991,453.74a3.391,3.391,0,0,1-2.7,2.33c-1.033.231-2.391.312-3.045-.7a5.909,5.909,0,0,0,3.617-.116A6.339,6.339,0,0,0,449.991,453.74Z" transform="translate(-397.682 -406.033)" fill="#414042"/>
  <path id="Path_222" data-name="Path 222" d="M497.979,653.5c-.177-.427-.321-.961-.783-1.156a3.005,3.005,0,0,0-1.192.065c-1.035.151-2.45.895-2.081,2.159a26.353,26.353,0,0,1,.925,6.153c.041.533.674.643,1.1.593a13.576,13.576,0,0,0,2.611-.656c.336-.1.393-.532.4-.828A23.341,23.341,0,0,0,497.979,653.5Zm-1.57,7a19.115,19.115,0,0,0-1.355-6.2c.021.129.827,4.928.567,6.386-.287-1.662-.424-3.3-.682-5.06a6.97,6.97,0,0,1-.241-1.8c.552-.676,1.511-.694,2.3-.843a21.061,21.061,0,0,1,1.249,7.01C497.633,660.165,497.019,660.333,496.408,660.5Z" transform="translate(-441.557 -581.636)" fill="#414042"/>
  <path id="Path_223" data-name="Path 223" d="M502.612,665.76a19.114,19.114,0,0,0-1.355-6.2c.021.13.827,4.928.567,6.386-.287-1.662-.424-3.3-.682-5.06a6.964,6.964,0,0,1-.241-1.8c.552-.676,1.511-.694,2.3-.843a21.061,21.061,0,0,1,1.249,7.01C503.837,665.424,503.223,665.591,502.612,665.76Z" transform="translate(-447.762 -586.895)" fill="#d1d3d4"/>
  <path id="Path_224" data-name="Path 224" d="M637.719,671.959c-2.939,1.333-6.374.839-9.329-.2a44.458,44.458,0,0,0,8.245-.509,3.22,3.22,0,0,0,2.66-2.538A2.793,2.793,0,0,1,637.719,671.959Z" transform="translate(-560.529 -596.146)" fill="#414042"/>
  <path id="Path_225" data-name="Path 225" d="M171.622,444.328l-15.18,3.891-1.981.508-8.782,2.25-1.272.325a2.8,2.8,0,1,1-1.388-5.422l4.089-1.048,3.1-.794,1.58-.4,2.148-.469.1-.021a2.259,2.259,0,0,1,2.069.984,8.008,8.008,0,0,1,.85,1.367,7.892,7.892,0,0,0,.408.815c.547.818,1.983.516,2.518.116a5.072,5.072,0,0,0,2.926-.534,2.163,2.163,0,0,1,1.3-.552,2.1,2.1,0,0,1,.419-.151,6.1,6.1,0,0,0,2.875-.718,3.181,3.181,0,0,0,.9-1.4,9.365,9.365,0,0,0,.034-2.307,5.849,5.849,0,0,0-.252-1.3l3.494-.895a20.839,20.839,0,0,1-.6,3.217,7.821,7.821,0,0,1-.334,1.12v.016A4.679,4.679,0,0,0,171.622,444.328Z" transform="translate(-129.421 -392.608)" fill="#6d6e71"/>
  <path id="Path_226" data-name="Path 226" d="M238.415,468.962l-1.19.26-.1.021-2.148.469.231-1.024.96-.583.745-.024.56-.02.364-.012.505.8Z" transform="translate(-212.61 -418.688)" fill="#414042"/>
  <path id="Path_227" data-name="Path 227" d="M177.761,556.287c-.05.133-.116.417-.167.552a17.034,17.034,0,0,1-4,1.656l-.182.054-.1.03-.037.01-.04.012c-.012,0-1.525.347-1.718.371l-.061.009h-.008a15.363,15.363,0,0,1-8.578-.974c-1.041-.836-1.99-1.773-2.976-2.642a16.122,16.122,0,0,1,.034-5.65,29.529,29.529,0,0,1,.819-4.916,8.592,8.592,0,0,1,.41-.938c.083-.016.168-.036.251-.057l9.66-2.476c.021.394.044.645.044.645h.017c0,.417.016.836.016,1.272v.067a11.677,11.677,0,0,0-.134,2.406c.184,1.488-.735,2.809-1.571,3.945a7.632,7.632,0,0,1-5.517,2.927,7.823,7.823,0,0,0,4.909.03,1.607,1.607,0,0,1,.74-.183,2.5,2.5,0,0,1,1.586.511,4.874,4.874,0,0,0,2.395.075,6.851,6.851,0,0,0,3.627-2.056,20.477,20.477,0,0,0,0,2.575,13.839,13.839,0,0,0,.284,1.637s-6.8,3.781-13.542.569c3.727,3.341,9.366,2.183,9.372,2.182A38.3,38.3,0,0,0,177.761,556.287Z" transform="translate(-145.997 -483.495)" fill="#c2b59b"/>
  <path id="Path_228" data-name="Path 228" d="M473.287,398.91c-.534,0-.967.619-.967,1.381s.432,1.381.967,1.381.967-.619.967-1.381S473.821,398.91,473.287,398.91Zm.4,1.146c-.156,0-.283-.181-.283-.406s.127-.406.283-.406.284.181.284.406S473.842,400.056,473.684,400.056Z" transform="translate(-422.506 -357.543)" fill="#414042"/>
  <path id="Path_229" data-name="Path 229" d="M425.473,404.28c-.472,0-.853.545-.853,1.218s.382,1.218.853,1.218.853-.545.853-1.218S425.936,404.28,425.473,404.28Zm.347,1.166c-.156,0-.284-.182-.284-.406s.128-.406.284-.406.284.182.284.406-.135.406-.293.406Z" transform="translate(-380.322 -362.292)" fill="#414042"/>
  <path id="Path_230" data-name="Path 230" d="M101.347,430.405a1.941,1.941,0,0,1-.87.645,2.287,2.287,0,0,1-1.149.108l-.312-.044.046-1.293.325.047a1.167,1.167,0,0,0,.781-.116.769.769,0,0,0,.364-.585.861.861,0,0,0-.133-.653.823.823,0,0,0-.578-.318,1.5,1.5,0,0,0-.845.126,6.508,6.508,0,0,0-1.213.809,7.781,7.781,0,0,1-1.725,1.108,2.64,2.64,0,0,1-1.388.163,2.24,2.24,0,0,1-1.488-.762,2.162,2.162,0,0,1,.427-2.938,2.266,2.266,0,0,1,1.649-.31l.231.032-.046,1.292-.25-.036a1.314,1.314,0,0,0-.787.078.626.626,0,0,0-.34.5.686.686,0,0,0,.135.568.925.925,0,0,0,.6.276,1.425,1.425,0,0,0,.828-.135,8.106,8.106,0,0,0,1.233-.8,9.193,9.193,0,0,1,1.756-1.1,2.511,2.511,0,0,1,1.352-.169,2.291,2.291,0,0,1,1.072.428,1.945,1.945,0,0,1,.652.865,2.406,2.406,0,0,1-.32,2.22Z" transform="translate(-86.838 -381.818)" fill="#414042"/>
  <path id="Path_231" data-name="Path 231" d="M103.44,366.632,104.545,363l1.206.368-.719,2.351,2.351.718.571-1.867,1.2.368-.567,1.879,2.471.755.718-2.35,1.2.363-1.11,3.627Z" transform="translate(-96.28 -325.785)" fill="#414042"/>
  <path id="Path_232" data-name="Path 232" d="M123.74,312.323l.918-1.879a2.049,2.049,0,0,1,1.185-1.119,2.073,2.073,0,0,1,1.619.163l4.15,2.026a2.083,2.083,0,0,1,1.127,1.182,2.034,2.034,0,0,1-.155,1.619l-.918,1.879Zm7.685,1.5a.747.747,0,0,0-.377-1.1l-4.189-2.047a.744.744,0,0,0-1.1.376l-.305.623,5.666,2.767Z" transform="translate(-114.233 -278.231)" fill="#414042"/>
  <path id="Path_233" data-name="Path 233" d="M167.569,260.565a2.078,2.078,0,0,1-1.6-.414l-3.921-2.793a2.075,2.075,0,0,1-.915-1.378,2.352,2.352,0,0,1,1.8-2.528,2.061,2.061,0,0,1,1.6.413l3.922,2.794a2.07,2.07,0,0,1,.913,1.377,2.115,2.115,0,0,1-.421,1.6A2.082,2.082,0,0,1,167.569,260.565Zm.509-2.269a.9.9,0,0,0-.4-.547l-3.922-2.794a.9.9,0,0,0-.648-.2.885.885,0,0,0-.687.964.9.9,0,0,0,.4.548l3.921,2.792a.9.9,0,0,0,.649.2A.887.887,0,0,0,168.077,258.3Z" transform="translate(-147.278 -228.879)" fill="#414042"/>
  <path id="Path_234" data-name="Path 234" d="M194.12,203.047,197.1,200l.9.881-1.022,1.041,5.406,5.288-.934.955-5.406-5.288-1.022,1.041Z" transform="translate(-176.475 -181.633)" fill="#414042"/>
  <path id="Path_235" data-name="Path 235" d="M275.026,129.74l3.29,8.288-1.272.738-3.522-4.677,2.3,5.384-1.272.738-5.55-6.99,1.168-.674,3.615,4.8-2.349-5.527,1.178-.681,3.615,4.8-2.35-5.527Z" transform="translate(-242.696 -119.498)" fill="#414042"/>
  <path id="Path_236" data-name="Path 236" d="M355.283,119.133a2.045,2.045,0,0,1-1.046-1.236l-1.611-4.617a2.09,2.09,0,1,1,3.945-1.374l.341.976-1.234.431-.34-.976a.849.849,0,0,0-.4-.5.792.792,0,0,0-1.048.365.846.846,0,0,0,0,.642l1.612,4.617a.849.849,0,0,0,.4.5.792.792,0,0,0,1.048-.365.852.852,0,0,0,0-.642l-.416-1.19,1.238-.432.415,1.19a2.052,2.052,0,0,1-.049,1.619,2.269,2.269,0,0,1-2.856.992Z" transform="translate(-316.525 -102.462)" fill="#414042"/>
  <path id="Path_237" data-name="Path 237" d="M456.488,89.42l.414,8.813-1.334.062-.284-6.043-.962,6.1-.932.044-1.53-5.985.283,6.043-1.309.062-.414-8.813,1.888-.089,1.422,5.573.844-5.68Z" transform="translate(-403.138 -83.84)" fill="#414042"/>
  <path id="Path_238" data-name="Path 238" d="M528,99.479a2.011,2.011,0,0,1-.383-1.556L528.5,91.1l1.325.171-.887,6.822a.81.81,0,0,0,.131.614.776.776,0,0,0,1.063.139.819.819,0,0,0,.282-.561l.886-6.822,1.3.169-.887,6.822a1.959,1.959,0,0,1-2.3,1.785A2.039,2.039,0,0,1,528,99.479Z" transform="translate(-471.39 -85.326)" fill="#414042"/>
  <path id="Path_239" data-name="Path 239" d="M582.931,111.791l.127-3.767-.664-.2-1.056,3.486-1.279-.387,2.558-8.441,2,.606a2.049,2.049,0,0,1,1.294.991,2.083,2.083,0,0,1,.1,1.63l-.282.925a2.311,2.311,0,0,1-.539.956,1.784,1.784,0,0,1-.86.5l-.069,4.1Zm-.171-5.175.664.2a.746.746,0,0,0,1.021-.547l.3-.977a.745.745,0,0,0-.547-1.021l-.663-.2Z" transform="translate(-517.788 -95.39)" fill="#414042"/>
  <path id="Path_240" data-name="Path 240" d="M632.13,135.222l-1.289-.634-1.122,1.626-1.2-.589,5.2-7.276,1.606.789-2.576,8.565-1.221-.6Zm.408-1.231,1.141-3.555-2.114,3.077Z" transform="translate(-560.644 -118.268)" fill="#414042"/>
  <path id="Path_241" data-name="Path 241" d="M679,162.807l5.132-7.177,1.087.777-2.172,3.025,1.292.925,2.162-3.025,1.087.777-5.132,7.176-1.087-.777,2.236-3.122-1.292-.925-2.236,3.122Z" transform="translate(-605.287 -142.394)" fill="#414042"/>
  <path id="Path_242" data-name="Path 242" d="M163.46,715.406a1.917,1.917,0,0,1,.124-1.059,2.242,2.242,0,0,1,.694-.9l.243-.194.895.905-.252.2a1.144,1.144,0,0,0-.443.639.754.754,0,0,0,.173.655.84.84,0,0,0,.557.347.81.81,0,0,0,.619-.2,1.5,1.5,0,0,0,.48-.694,6.366,6.366,0,0,0,.231-1.417,7.678,7.678,0,0,1,.37-1.984,2.581,2.581,0,0,1,.818-1.1,2.2,2.2,0,0,1,1.549-.553,2.137,2.137,0,0,1,1.82,2.288,2.213,2.213,0,0,1-.889,1.388l-.175.14-.9-.905.194-.154a1.305,1.305,0,0,0,.476-.617.616.616,0,0,0-.13-.578.672.672,0,0,0-.5-.286.914.914,0,0,0-.6.241,1.418,1.418,0,0,0-.463.686,8,8,0,0,0-.253,1.423,9.018,9.018,0,0,1-.394,2,2.465,2.465,0,0,1-.793,1.085,2.247,2.247,0,0,1-1.029.48,1.919,1.919,0,0,1-1.059-.116,2.368,2.368,0,0,1-1.377-1.726Z" transform="translate(-149.336 -632.703)" fill="#414042"/>
  <path id="Path_243" data-name="Path 243" d="M203.788,754.9a2.024,2.024,0,0,1,.611-1.5l3.238-3.469a2.017,2.017,0,0,1,1.464-.712,2.083,2.083,0,0,1,1.5.62,1.984,1.984,0,0,1,.11,2.966l-3.238,3.469a2.02,2.02,0,0,1-1.463.713,2.086,2.086,0,0,1-1.508-.624A2.062,2.062,0,0,1,203.788,754.9Zm2.146.791a.882.882,0,0,0,.586-.318l3.238-3.469a.889.889,0,0,0,.277-.607.873.873,0,0,0-.852-.8.887.887,0,0,0-.586.318l-3.238,3.469a.8.8,0,0,0,.574,1.4Z" transform="translate(-185.024 -667.342)" fill="#414042"/>
  <path id="Path_244" data-name="Path 244" d="M251.2,778.58l1.079.752-4.253,6.109,1.924,1.34-.709,1.019-3.006-2.092Z" transform="translate(-222.559 -693.311)" fill="#414042"/>
  <path id="Path_245" data-name="Path 245" d="M298.856,815.736a2.036,2.036,0,0,1,.16-1.619l2.123-4.241a2.045,2.045,0,0,1,1.2-1.1,2.3,2.3,0,0,1,2.724,1.367,2.045,2.045,0,0,1-.158,1.619L302.786,816a2.036,2.036,0,0,1-1.2,1.1,2.316,2.316,0,0,1-2.729-1.366Zm2.283.153a.884.884,0,0,0,.472-.472l2.124-4.237a.891.891,0,0,0,.095-.66.873.873,0,0,0-1.041-.523.89.89,0,0,0-.472.472l-2.123,4.237a.885.885,0,0,0-.095.66.874.874,0,0,0,1.041.523Z" transform="translate(-269.011 -719.933)" fill="#414042"/>
  <path id="Path_246" data-name="Path 246" d="M386.194,844.777l-1.376-.328-.724,1.8-1.274-.31,3.415-8.114,1.714.408-.615,8.788-1.3-.311Zm.125-1.272.324-3.66-1.362,3.412Z" transform="translate(-343.355 -745.71)" fill="#414042"/>
  <path id="Path_247" data-name="Path 247" d="M450.987,851.468a2.053,2.053,0,0,1,.163,1.072l-.061.7a2.052,2.052,0,0,1-.686,1.453,2.021,2.021,0,0,1-1.545.434l-2.188-.19.749-8.651,2.076.179a2.012,2.012,0,0,1,1.448.694,2.052,2.052,0,0,1,.426,1.551l-.039.457a1.754,1.754,0,0,1-1.021,1.581A1.61,1.61,0,0,1,450.987,851.468Zm-1.135.823a.817.817,0,0,0-.846-1.008l-.694-.059-.215,2.595.809.069a.733.733,0,0,0,.873-.733Zm-1.226-4.647-.2,2.348.578.05a.815.815,0,0,0,1.007-.846l.054-.627a.734.734,0,0,0-.734-.873Z" transform="translate(-399.822 -753.192)" fill="#414042"/>
  <path id="Path_248" data-name="Path 248" d="M509.638,854.645l-1.412.089-.164,1.937-1.312.082.892-8.757,1.759-.116,1.98,8.578-1.337.083Zm-.253-1.252-.756-3.594-.305,3.661Z" transform="translate(-452.955 -754.598)" fill="#414042"/>
  <path id="Path_249" data-name="Path 249" d="M556.57,841.11l2.015-.435a2.017,2.017,0,0,1,1.586.231,2.058,2.058,0,0,1,.864,1.356l.959,4.438a1.938,1.938,0,0,1-1.58,2.459l-2.013.435Zm3.519,6.855a.734.734,0,0,0,.619-.959l-.966-4.487a.734.734,0,0,0-.959-.619l-.66.143,1.31,6.064Z" transform="translate(-497.014 -748.17)" fill="#414042"/>
  <path id="Path_250" data-name="Path 250" d="M608.5,828.52l1.243-.43,2.842,8.21-1.242.431Z" transform="translate(-542.939 -737.096)" fill="#414042"/>
  <path id="Path_251" data-name="Path 251" d="M669.408,800.183a2.056,2.056,0,0,1,.759.776l.361.607a2.052,2.052,0,0,1,.291,1.582,2.007,2.007,0,0,1-1,1.252l-1.887,1.123-4.44-7.463,1.793-1.066a2.013,2.013,0,0,1,1.578-.282,2.048,2.048,0,0,1,1.25,1.009l.231.394a1.754,1.754,0,0,1,.094,1.879A1.618,1.618,0,0,1,669.408,800.183Zm-4.155-1.734,1.206,2.026.5-.3a.815.815,0,0,0,.324-1.275l-.317-.533a.734.734,0,0,0-1.105-.281Zm3.713,3.061a.817.817,0,0,0-1.275-.324l-.6.364,1.333,2.239.7-.418a.734.734,0,0,0,.281-1.106Z" transform="translate(-591.571 -709.294)" fill="#414042"/>
  <path id="Path_252" data-name="Path 252" d="M708.29,762.439l2.9-2.349.781.964-1.88,1.522,1.516,1.88,1.5-1.209.781.964-1.5,1.209L714,767.4l1.88-1.522.78.966-2.9,2.348Z" transform="translate(-631.19 -676.959)" fill="#414042"/>
  <path id="Path_253" data-name="Path 253" d="M753.128,736.143l-3.279-1.735-.463.5,2.631,2.436-.894.964-6.372-5.9,1.4-1.511a2,2,0,0,1,1.434-.718,2.059,2.059,0,0,1,1.486.615l.7.649a2.287,2.287,0,0,1,.613.889,1.755,1.755,0,0,1,.073.981l3.6,1.828Zm-4.654-2.081.462-.5a.735.735,0,0,0-.043-1.14l-.738-.682a.733.733,0,0,0-1.14.043l-.463.5Z" transform="translate(-663.434 -650.51)" fill="#414042"/>
  <path id="Path_254" data-name="Path 254" d="M791.3,699.611l-.864-.821a1.923,1.923,0,0,0,.347-.38.85.85,0,0,0,.191-.7,1.212,1.212,0,0,0-.541-.631l-5.319-3.752.759-1.075,5.516,3.889a2.028,2.028,0,0,1,.9,1.318,2.007,2.007,0,0,1-.4,1.542A2.86,2.86,0,0,1,791.3,699.611Z" transform="translate(-699.128 -616.964)" fill="#414042"/>
  <path id="Path_255" data-name="Path 255" d="M812.118,659.109l-.658,1.252,1.57,1.147-.612,1.163L805.4,657.36l.819-1.56,8.358,2.765-.623,1.19Zm-1.2-.435-3.469-1.218,2.969,2.162Z" transform="translate(-717.071 -584.728)" fill="#414042"/>
  <path id="Path_256" data-name="Path 256" d="M822.527,599.67l4.149,3.375,3.418,1.237-.448,1.237-3.418-1.239-5.348-.064.476-1.318,3.461.171-2.759-2.107Z" transform="translate(-730.761 -535.089)" fill="#414042"/>
  <path id="Path_257" data-name="Path 257" d="M846.419,568.334l-.283,1.388,1.827.665-.262,1.288-8.22-3.149.347-1.726,8.8.33-.262,1.312Zm-1.272-.083-3.668-.206,3.454,1.251Z" transform="translate(-747.211 -506.02)" fill="#414042"/>
</svg>
