<svg xmlns="http://www.w3.org/2000/svg" width="46" height="46" viewBox="0 0 46 46">
  <g id="Group_2008" data-name="Group 2008" transform="translate(0.393 0.446)">
    <circle id="Ellipse_12" data-name="Ellipse 12" cx="23" cy="23" r="23" transform="translate(-0.393 -0.446)" fill="#fff"/>
    <path id="Icon_ionic-ios-globe" data-name="Icon ionic-ios-globe" d="M16.6,3.375h-.045a13.228,13.228,0,0,0,.006,26.455h.045A13.228,13.228,0,1,0,16.6,3.375Zm11.46,12.337H23.128a25.043,25.043,0,0,0-.623-4.846,19.373,19.373,0,0,0,3.161-1.335A11.393,11.393,0,0,1,28.062,15.712Zm-12.35,0h-3.93a22.6,22.6,0,0,1,.56-4.394,19.348,19.348,0,0,0,3.371.452Zm0,1.781V21.43a19.43,19.43,0,0,0-3.371.452,22.6,22.6,0,0,1-.56-4.388Zm1.781,0h3.9a22.471,22.471,0,0,1-.56,4.382,18.982,18.982,0,0,0-3.339-.445Zm0-1.781V11.769a19.43,19.43,0,0,0,3.339-.445,22.538,22.538,0,0,1,.56,4.388Zm6.957-7.5a17.667,17.667,0,0,1-2.417.986,13.131,13.131,0,0,0-1.685-3.466A11.508,11.508,0,0,1,24.45,8.215Zm-4.1,1.444a17.9,17.9,0,0,1-2.862.382V5.372C18.574,5.957,19.63,7.528,20.355,9.658ZM15.712,5.346v4.687a17.589,17.589,0,0,1-2.894-.388C13.557,7.5,14.625,5.925,15.712,5.346Zm-2.9.407a13.234,13.234,0,0,0-1.673,3.44,18.064,18.064,0,0,1-2.385-.979A11.336,11.336,0,0,1,12.812,5.753ZM7.54,9.537a18.989,18.989,0,0,0,3.129,1.323,24.035,24.035,0,0,0-.623,4.846h-4.9A11.335,11.335,0,0,1,7.54,9.537Zm-2.4,7.956h4.9a24.98,24.98,0,0,0,.623,4.846,20.148,20.148,0,0,0-3.129,1.323A11.4,11.4,0,0,1,5.143,17.493Zm3.606,7.5a17.8,17.8,0,0,1,2.391-.979,13.281,13.281,0,0,0,1.673,3.447A11.618,11.618,0,0,1,8.749,24.991Zm4.07-1.437a17.681,17.681,0,0,1,2.894-.388v4.693C14.619,27.28,13.557,25.7,12.819,23.554Zm4.674,4.28V23.159a17.9,17.9,0,0,1,2.862.382C19.63,25.678,18.574,27.248,17.493,27.833Zm2.862-.362a13.131,13.131,0,0,0,1.685-3.466A17.376,17.376,0,0,1,24.457,25,11.64,11.64,0,0,1,20.355,27.471Zm5.31-3.8A19.373,19.373,0,0,0,22.5,22.333a24.913,24.913,0,0,0,.623-4.84h4.935A11.344,11.344,0,0,1,25.665,23.668Z" transform="translate(5.621 5.86)" fill="#313131"/>
  </g>
</svg>
