<svg xmlns="http://www.w3.org/2000/svg" width="46" height="46" viewBox="0 0 46 46">
  <g id="Group_2007" data-name="Group 2007" transform="translate(0.209 0.267)">
    <circle id="Ellipse_11" data-name="Ellipse 11" cx="23" cy="23" r="23" transform="translate(-0.209 -0.267)" fill="#fff"/>
    <path id="Icon_material-phone" data-name="Icon material-phone" d="M8.625,13.377a17.262,17.262,0,0,0,7.509,7.509l2.507-2.507a1.133,1.133,0,0,1,1.162-.273,13,13,0,0,0,4.068.65,1.143,1.143,0,0,1,1.139,1.139v3.977a1.143,1.143,0,0,1-1.139,1.139A19.37,19.37,0,0,1,4.5,5.639,1.143,1.143,0,0,1,5.639,4.5H9.628a1.143,1.143,0,0,1,1.139,1.139,12.945,12.945,0,0,0,.65,4.068,1.144,1.144,0,0,1-.285,1.162L8.625,13.377Z" transform="translate(8.127 8.698)" fill="#313131"/>
  </g>
</svg>
