<svg xmlns="http://www.w3.org/2000/svg" width="46" height="46" viewBox="0 0 46 46">
  <g id="Group_2006" data-name="Group 2006" transform="translate(-6 -6)">
    <circle id="Ellipse_10" data-name="Ellipse 10" cx="23" cy="23" r="23" transform="translate(6 6)" fill="#fff"/>
    <g id="Icon_ionic-ios-mail" data-name="Icon ionic-ios-mail" transform="translate(18.444 22.313)">
      <path id="Path_915" data-name="Path 915" d="M23.636,10.344l-5.284,5.382a.1.1,0,0,0,0,.137l3.7,3.938a.637.637,0,0,1,0,.9.64.64,0,0,1-.9,0l-3.683-3.923a.1.1,0,0,0-.142,0l-.9.913A3.954,3.954,0,0,1,13.6,18.883a4.033,4.033,0,0,1-2.878-1.223l-.864-.879a.1.1,0,0,0-.142,0L6.036,20.705a.64.64,0,0,1-.9,0,.637.637,0,0,1,0-.9l3.7-3.938a.1.1,0,0,0,0-.137L3.542,10.344a.1.1,0,0,0-.167.069V21.181a1.576,1.576,0,0,0,1.571,1.571H22.231A1.576,1.576,0,0,0,23.8,21.181V10.413A.1.1,0,0,0,23.636,10.344Z" transform="translate(-3.375 -8.611)" fill="#313131"/>
      <path id="Path_916" data-name="Path 916" d="M13.845,16.866a2.67,2.67,0,0,0,1.92-.805l7.7-7.842a1.543,1.543,0,0,0-.972-.344H5.2a1.533,1.533,0,0,0-.972.344l7.7,7.842A2.67,2.67,0,0,0,13.845,16.866Z" transform="translate(-3.632 -7.875)" fill="#313131"/>
    </g>
  </g>
</svg>
