<svg id="Layer_1" data-name="Layer 1" xmlns="http://www.w3.org/2000/svg" viewBox="0 0 300 300"><path d="M227.5,214.94A14.56,14.56,0,0,0,213,228a91.24,91.24,0,0,1-48.38,13.77h-1.19c-50.17-.64-90.82-42-90.62-92.18A91.81,91.81,0,0,1,224.46,80.35a7.79,7.79,0,0,1,2.71,6,8.19,8.19,0,0,1-13.57,6.22,75.48,75.48,0,1,0-49,132.93c25,0,47-11,60.33-30.13l.26-.36a25.88,25.88,0,0,0-41.47-30.92l-2.51,3.17a23.48,23.48,0,0,1-16.61,6.7,23.94,23.94,0,1,1,7-46.82,14.56,14.56,0,1,0,7-16.13l-.18-.07a41.45,41.45,0,1,0-13.82,80.52A40.71,40.71,0,0,0,194.2,179l3.28-4.09a8.37,8.37,0,0,1,11-1.92,8.37,8.37,0,0,1,2.46,11.92l-.27.38c-10,14.4-26.8,22.66-46,22.66a58,58,0,0,1-57.93-60.3,58,58,0,0,1,95.53-41.81,25.67,25.67,0,0,0,33.63-38.8,109.3,109.3,0,0,0-71.23-26.39c-60,0-109.08,48.84-109.32,108.88-.24,59.76,48.17,109,107.91,109.75h1.41A108.63,108.63,0,0,0,222.11,243a14.55,14.55,0,1,0,5.39-28.06Z" fill="#f9b02a"/></svg>